<svg fill="none" height="756" viewBox="0 0 1088 756" width="1088" xmlns="http://www.w3.org/2000/svg" xmlns:xlink="http://www.w3.org/1999/xlink"><clipPath id="a"><path d="m0 0h1088v756h-1088z"/></clipPath><g clip-path="url(#a)"><path d="m513.932 459.922c-24.554-40.657-67.141-54.149-81.133-57.921-3.819-10.53-4.976-21.842-3.368-32.928 3.171-21.782 8.346-57.185 8.851-59.772l-105.8 41.156-107.607 36.155c2.043 1.684 28.691 25.542 45.073 40.236 8.342 7.479 14.704 16.905 18.521 27.439-8.328 11.859-32.395 49.496-25.211 96.444 6.786 44.338 37.694 72.4 58.274 91.14 14.859 13.483 31.472 24.893 49.39 33.922 7.894 5.661 16.906 9.571 26.433 11.468 9.527 1.899 19.349 1.739 28.81-.468 3.233-.752 9.451-2.346 15.277-4.142 2.57-.797 5.837-1.813 9.575-3.126l.617-.23.618-.219c3.709-1.386 6.869-2.694 9.355-3.732 5.613-2.352 11.422-5.113 14.385-6.606 8.674-4.368 16.315-10.537 22.413-18.095s10.511-16.331 12.945-25.733c7.974-18.408 13.421-37.81 16.192-57.679 3.828-27.54 9.575-68.909-13.61-107.309z" fill="#d6b49a"/><path d="m410.668 689.42c-14.419-.01-28.475-4.519-40.202-12.909-17.958-9.061-34.611-20.506-49.507-34.023-20.592-18.717-51.707-46.998-58.537-91.634-6.618-43.249 12.757-79.012 25.098-96.697-3.791-10.234-10.014-19.393-18.133-26.687-15.945-14.306-43.003-38.551-45.046-40.207-.115-.097-.203-.221-.255-.362s-.067-.293-.042-.441c.027-.148.094-.287.192-.401.099-.114.226-.201.369-.25l107.613-36.161 105.777-41.128c.14-.054.292-.069.439-.045.148.025.287.088.401.185.115.096.202.222.252.363.049.141.06.293.031.44-.5 2.582-5.753 38.53-8.84 59.733-1.562 10.802-.475 21.821 3.166 32.109 20.805 5.674 58.588 20.727 81.206 58.184 23.342 38.653 17.556 80.303 13.728 107.866-2.781 19.921-8.239 39.375-16.226 57.836-2.475 9.505-6.948 18.374-13.122 26.013-6.174 7.64-13.905 13.876-22.679 18.291-3.227 1.622-8.947 4.333-14.447 6.629-2.587 1.083-5.646 2.346-9.255 3.698l-.129.062-1.234.443-.13.04c-3.653 1.274-6.807 2.245-9.485 3.086-5.696 1.763-11.819 3.368-15.333 4.165-5.137 1.192-10.395 1.802-15.67 1.802zm-184.121-302.483c5.713 4.995 29.443 26.261 43.968 39.287 8.437 7.578 14.877 17.118 18.751 27.776.046.127.061.263.044.397-.018.134-.068.262-.145.372-12.185 17.354-31.643 52.875-25.071 95.833 6.735 44.052 37.603 72.091 58.01 90.646 14.799 13.428 31.345 24.795 49.188 33.792l.112.068c7.796 5.59 16.697 9.451 26.105 11.325 9.409 1.877 19.11 1.717 28.453-.46 3.491-.813 9.569-2.379 15.227-4.13 2.688-.825 5.865-1.824 9.541-3.11l.112-.033.999-.359.107-.051c3.637-1.358 6.735-2.632 9.322-3.721 5.455-2.279 11.13-4.967 14.334-6.578 8.571-4.312 16.122-10.404 22.148-17.87 6.026-7.465 10.388-16.131 12.795-25.418.013-.042.028-.084.045-.124 7.943-18.336 13.369-37.663 16.13-57.454 3.794-27.327 9.541-68.624-13.503-106.766-22.467-37.205-60.171-52.033-80.64-57.544-.128-.038-.246-.105-.343-.197-.098-.092-.172-.205-.218-.331-3.853-10.665-5.019-22.115-3.395-33.337 2.806-19.302 7.414-50.832 8.609-58.325l-104.436 40.612z" fill="#000"/><path d="m337.379 364.026c58.935-21.346 104.06-45.969 100.79-54.998s-53.697.956-112.632 22.302c-58.935 21.345-104.06 45.969-100.79 54.998 3.27 9.028 53.698-.957 112.632-22.302z" fill="#020202"/><path d="m235.578 390.457c-6.072 0-10.579-1.039-11.606-3.867-2.245-6.174 13.7-16.394 27.456-23.904 19.082-10.405 45.298-21.832 73.837-32.176 28.539-10.343 56.001-18.358 77.311-22.579 15.378-3.042 34.169-5.382 36.397.775s-13.7 16.399-27.456 23.909c-19.083 10.405-45.293 21.832-73.837 32.17-28.545 10.338-55.996 18.359-77.312 22.585-8.317 1.644-17.634 3.087-24.79 3.087zm191.833-83.957c-5.124 0-12.852.775-24.504 3.081-21.237 4.21-48.603 12.202-77.07 22.512-28.466 10.31-54.603 21.703-73.612 32.069-26.805 14.626-27.198 20.43-26.682 21.855.517 1.426 4.535 5.613 34.489-.303 21.231-4.204 48.603-12.201 77.064-22.511s54.603-21.698 73.607-32.07c26.799-14.626 27.192-20.423 26.676-21.855-.303-.853-1.925-2.778-9.968-2.778z" fill="#000"/><path d="m449.782 701.3-.051 46.48c0 3.47 3.738 6.3 8.352 6.3h.168c4.614 0 8.363-2.81 8.363-6.29l.05-45.96c0-.3-3.9-.56-8.637-.56h-8.245" fill="#818181"/><path d="m458.246 754.92h-.18c-5.051 0-9.193-3.21-9.193-7.14l.051-47.33h9.086c2.301 0 4.49.06 6.174.16 2.312.15 3.334.25 3.334 1.22l-.051 45.97c-.03 1.02-.299 2.01-.787 2.9s-1.18 1.65-2.019 2.22c-1.868 1.34-4.118 2.04-6.415 2zm-7.639-52.75-.05 45.64c0 3 3.367 5.45 7.509 5.46h.18c1.932.03 3.824-.56 5.393-1.69.625-.42 1.143-.98 1.51-1.63.368-.66.576-1.39.606-2.14l.051-45.35c-2.574-.25-5.16-.35-7.745-.32h-7.454z" fill="#191818"/><path d="m893.16 701.3-.05 46.48c0 3.47 3.74 6.3 8.35 6.3h.17c4.62 0 8.37-2.81 8.37-6.29l.05-45.96c0-.3-3.93-.56-8.64-.56h-8.25" fill="#818181"/><path d="m901.63 754.92h-.18c-5.05 0-9.2-3.21-9.2-7.14l.06-47.33h9.08c2.33 0 4.49.06 6.15.16 2.31.15 3.33.25 3.33 1.22l-.05 45.97c-.03 1.02-.3 2.01-.79 2.9-.48.89-1.18 1.65-2.02 2.22-1.86 1.34-4.09 2.04-6.38 2zm-7.64-52.75-.05 45.64c0 3 3.37 5.45 7.51 5.46h.18c1.93.03 3.82-.56 5.39-1.69.63-.42 1.14-.98 1.51-1.63.37-.66.58-1.39.61-2.14l.05-45.35c-2.58-.25-5.16-.35-7.75-.32h-7.45z" fill="#191818"/><path d="m936.1 689.79h-600.672c-1.6 0-3.135.64-4.266 1.77-1.132 1.13-1.767 2.66-1.767 4.26s.635 3.14 1.767 4.27c1.131 1.13 2.666 1.77 4.266 1.77h594.782c.8 0 1.59-.16 2.34-.48.74-.31 1.41-.77 1.97-1.34.56-.58 1-1.26 1.3-2.01.29-.74.43-1.54.41-2.35z" fill="#dcdbda"/><path d="m930.21 702.7h-594.781c-1.823 0-3.572-.73-4.862-2.01-1.289-1.29-2.013-3.04-2.013-4.87 0-1.82.724-3.57 2.013-4.86 1.29-1.29 3.039-2.01 4.862-2.01h601.511l.15 6.73c.02.92-.14 1.83-.48 2.68s-.84 1.63-1.48 2.28c-.64.66-1.41 1.17-2.26 1.53-.84.35-1.75.53-2.66.53zm-594.781-12.07c-1.377 0-2.697.55-3.671 1.52-.974.98-1.521 2.3-1.521 3.67 0 1.38.547 2.7 1.521 3.67.974.98 2.294 1.52 3.671 1.52h594.781c.69 0 1.37-.13 2.01-.4s1.21-.66 1.7-1.16c.48-.49.86-1.08 1.11-1.72.26-.65.38-1.33.36-2.02l-.12-5.06z" fill="#000"/><path d="m305.397 376.056s-21.676 82.783-18.061 117.462c2.155 20.699 1.482 55.002.561 79.36-.284 7.669-3.555 14.923-9.114 20.213-5.559 5.291-12.966 8.198-20.64 8.103-7.673-.095-15.006-3.186-20.432-8.613-5.426-5.426-8.515-12.759-8.61-20.433-.151-12.347-1.56-21.742-.28-28.735 7.672-41.987-4.081-42.655 2.851-80.965 1.186-4.146 2.413-8.316 3.682-12.51 6.633-21.889 13.902-42.234 21.607-62.079 8.273-.781 17.511-3.239 27.462-5.461 7.65-1.706 14.648-4.255 20.974-6.342z" fill="#4ea7f1"/><path d="m258.532 602.028c-7.949-.028-15.569-3.172-21.225-8.757-5.656-5.584-8.897-13.164-9.026-21.112-.051-4.366-.27-8.419-.46-12.033-.348-6.578-.652-12.263.19-16.837 3.929-21.389 2.745-32.059 1.617-42.374-1.123-10.176-2.167-19.784 1.234-38.591v-.079c1.202-4.187 2.442-8.418 3.688-12.527 6.033-19.918 12.908-39.663 21.63-62.141l.191-.482.516-.051c6.432-.6 13.509-2.245 21.002-3.985 2.082-.482 4.198-.976 6.353-1.453 5.859-1.401 11.639-3.113 17.315-5.13 1.208-.412 2.396-.808 3.564-1.19l1.464-.488-.387 1.498c-.219.825-21.602 83.025-18.044 117.165 2.144 20.604 1.504 54.593.589 79.473-.271 7.823-3.575 15.234-9.214 20.665-5.639 5.43-13.169 8.453-20.997 8.429zm-26.019-139.39c-3.368 18.521-2.313 28.023-1.213 38.069 1.123 10.434 2.324 21.226-1.633 42.857-.803 4.405-.505 10.001-.163 16.472.191 3.609.41 7.7.46 12.101.096 7.451 3.099 14.57 8.369 19.839 5.271 5.268 12.391 8.269 19.843 8.361 7.451.092 14.644-2.731 20.043-7.867 5.399-5.137 8.578-12.179 8.858-19.626.914-24.83 1.554-58.729-.562-79.237-3.317-31.867 14.806-104.879 17.708-116.267l-2.116.679c-5.732 2.036-11.567 3.763-17.483 5.175-2.144.483-4.258.967-6.342 1.454-7.347 1.683-14.301 3.322-20.704 3.973-8.621 22.231-15.423 41.802-21.395 61.535-1.246 4.131-2.481 8.318-3.67 12.482z" fill="#000"/><path d="m315.516 552.774c-5.006 0-8.671-7.257-10.102-10.103-9.873-19.548 5.051-53.649 10.843-65.755 5.534 12.46 19.262 46.28 9.395 65.755-1.493 2.891-5.146 10.103-10.136 10.103z" fill="#4ea7f1"/><path d="m315.516 553.616c-5.528 0-9.271-7.414-10.865-10.58-9.328-18.465 2.806-49.591 10.826-66.496l.786-1.684.746 1.684c7.515 16.91 18.723 48.026 9.373 66.479-1.6 3.183-5.354 10.597-10.866 10.597zm.691-74.685c-7.858 16.944-18.768 46.106-10.063 63.348 1.335 2.637 4.877 9.653 9.367 9.653s8.026-7.016 9.367-9.653c8.727-17.247-1.308-46.398-8.671-63.348z" fill="#000"/><path d="m986.77 465.573c-62.16-53.784-139.19-41.829-150.3-39.921-106.93 17.067-193.41 56.124-206.65 105.677-2.72 10.231-4.92 20.596-6.57 31.053-26.462-4.49-70.879-6.69-96.747 21.451l-.129.146c-7.346 8.037-2.194 21.024 8.638 22.152 6.488.673 14.283 1.325 23.073 1.751 18.246.887 57.297 29.185 81.755 47.992 15.25 17.426 36.78 28.106 59.89 29.707h.37c6.78 4.549 24.69 15.219 49.48 14.829 13.08-.22 25.93-3.43 37.58-9.39l90.01-1.23c41.66 12.09 75.12 10.83 95.51 8.28 29.3-3.67 40.3-10.985 45.23-15.032 17-14.031 23.19-35.886 27.57-57.769 8.99-44.961-5.49-113.64-58.71-159.696z" fill="#f8f3ed"/><path d="m748.31 701.3c-22.67 0-39.96-9.19-48.45-14.843h-.19c-23.3-1.614-45.02-12.375-60.41-29.937-40.412-31.042-67.744-47.144-81.214-47.767-7.801-.382-15.58-.971-23.123-1.757-2.638-.269-5.148-1.269-7.248-2.887s-3.707-3.79-4.639-6.272c-.952-2.412-1.202-5.045-.722-7.593.481-2.549 1.673-4.909 3.438-6.809l.129-.14c11.579-12.594 27.945-20.407 48.66-23.236 17.892-2.441 35.835-.634 48.014 1.381 1.635-10.204 3.785-20.32 6.445-30.307 6.38-23.864 30.11-46.533 68.64-65.553 36.41-17.96 84.37-32.064 138.7-40.741 7.99-1.369 29.46-4.215 56.23-.926 36.6 4.49 68.47 18.313 94.75 41.044 24.71 21.506 43.03 49.404 52.94 80.634 8.74 27.282 10.89 55.647 6.05 79.859-4.1 20.457-9.96 43.513-27.87 58.251-9.17 7.539-24.1 12.519-45.66 15.219-31.13 3.9-63.34 1.12-95.72-8.27l-89.7 1.23c-11.71 5.94-24.62 9.15-37.76 9.39-.43.03-.87.03-1.29.03zm-47.99-16.538.24.146c8.42 5.612 25.98 15.062 49.01 14.692 12.95-.24 25.67-3.42 37.21-9.3l.17-.09 90.36-1.23.12.03c32.21 9.35 64.23 12.12 95.17 8.25 21.23-2.65 35.89-7.51 44.8-14.844 17.48-14.39 23.25-37.115 27.28-57.286 8.9-44.478-5.61-113.169-58.43-158.888-60.06-51.982-135.17-42.217-149.6-39.73-54.18 8.648-101.98 22.685-138.24 40.589-38.07 18.801-61.5 41.094-67.76 64.475-2.71 10.205-4.89 20.544-6.53 30.975l-.139.842-.842-.146c-24.695-4.203-70.038-7.038-95.973 21.187l-.129.141c-1.555 1.67-2.604 3.748-3.026 5.991s-.2 4.56.641 6.681c.82 2.182 2.23 4.093 4.074 5.52 1.843 1.426 4.047 2.311 6.365 2.557 7.515.78 15.26 1.369 23.011 1.745 13.829.674 41.493 16.877 82.218 48.166l.13.112c15.1 17.25 36.4 27.828 59.27 29.426z" fill="#000"/><path d="m622.645 561.546c-5.265-15.462-13.279-44.776-13.964-72.484-.507-20.582 1.863-41.133 7.044-61.058-14.734-30.275-21.057-63.953-18.308-97.51.144-1.629.703-3.195 1.624-4.547.92-1.351 2.172-2.445 3.635-3.177 1.462-.731 3.088-1.076 4.722-1.001s3.221.567 4.611 1.429l74.141 46.083c27.59-7.496 56.57-8.3 84.54-2.346l67.24-55.002c1.06-.864 2.32-1.434 3.67-1.65 1.34-.216 2.72-.071 4 .42 1.27.492 2.39 1.312 3.24 2.377s1.4 2.337 1.6 3.686c5.47 38.081 2.29 76.905-9.3 113.59 5.16 15.785 6.53 32.561 4.01 48.974" fill="#f8f3ed"/><path d="m621.848 561.815c-3.087-9.064-13.223-41.1-14.031-72.731-.51-20.556 1.844-41.083 6.993-60.991-14.702-30.336-21.004-64.058-18.251-97.656.134-1.773.726-3.482 1.719-4.957.993-1.476 2.352-2.669 3.944-3.462 1.6-.813 3.384-1.199 5.178-1.12 1.794.08 3.537.622 5.059 1.575l73.831 45.893c27.49-7.406 56.33-8.21 84.19-2.346l66.93-54.761c1.16-.96 2.57-1.592 4.06-1.832 1.5-.241 3.03-.079 4.44.466 1.41.546 2.65 1.457 3.59 2.64.95 1.182 1.56 2.595 1.78 4.092 5.48 38.117 2.32 76.978-9.25 113.708 5.12 15.837 6.47 32.653 3.93 49.103l-1.69-.258c2.5-16.282 1.14-32.923-3.97-48.581l-.09-.259.09-.258c11.55-36.565 14.72-75.263 9.26-113.219-.18-1.201-.67-2.333-1.43-3.281-.76-.947-1.75-1.677-2.89-2.114-1.13-.437-2.36-.566-3.56-.373-1.19.192-2.32.699-3.26 1.469l-67.56 55.276-.39-.084c-27.83-5.927-56.68-5.127-84.15 2.335l-.35.095-74.449-46.28c-1.277-.799-2.74-1.254-4.246-1.321-1.505-.067-3.003.257-4.346.94-1.329.661-2.465 1.656-3.296 2.886s-1.329 2.655-1.447 4.135c-2.744 33.413 3.551 66.95 18.224 97.095l.135.28-.079.304c-5.162 19.847-7.524 40.32-7.016 60.821.781 31.396 10.849 63.23 13.919 72.238z" fill="#000"/><path d="m238.917 661.166h-.163s-4.77-.061-9.227-4.338c-3.508-3.367-.477-18.201 10.103-35.403 9.036 17.477 11.269 32.064 7.947 35.403-4.266 4.316-8.66 4.338-8.66 4.338z" fill="#4ea7f1"/><path d="m238.923 662.008h-.169c-.213 0-5.158-.118-9.799-4.568-4.327-4.148.151-20.503 9.979-36.481l.78-1.269.685 1.325c8.418 16.315 11.859 32.294 7.801 36.385-4.462 4.49-9.047 4.586-9.266 4.586zm.651-38.86c-10.327 17.258-12.202 30.447-9.469 33.074 4.17 4.001 8.61 4.102 8.655 4.102h.151c.085 0 4.148-.123 8.082-4.085 2.604-2.649 1.403-15.502-7.419-33.091z" fill="#000"/><path d="m1047.79 596.624c8.31 3.828 21.46 11.455 30.3 25.817 20.44 33.198 5.21 81.809-23.21 107.379-20.64 18.57-44.39 21.49-63.08 23.9-10.96 1.4-61.74 7.73-96.61-23.9-7.06-6.39-23.58-21.39-21.14-39.92 1.26-9.538 7.74-22.273 18.78-25.815 21.17-6.813 33.84 28.155 73.58 32.455 5.72.62 30.24 2.57 49.39-12.906 3.13-2.537 8.31-7.297 14.59-17.96 6.45-10.961 17.36-33.68 17.4-69.05z" fill="#333"/><path d="m969.82 756c-30.52 0-56.72-8.79-75.21-25.55-7.15-6.49-23.91-21.69-21.4-40.66 1.39-10.529 8.49-23.011 19.36-26.524 10.66-3.429 18.96 3.092 29.49 11.337 10.75 8.419 24.14 18.887 44.43 21.087 8.76.95 31.05 1.6 48.77-12.73 3.24-2.615 8.25-7.296 14.4-17.73 11.27-19.133 17.25-42.856 17.28-68.606v-1.313l1.2.561c13.46 6.218 23.81 15.013 30.67 26.137 9.63 15.642 12.05 35.953 6.81 57.191-4.85 19.68-15.85 38.36-30.19 51.26-20.66 18.59-44.18 21.61-63.08 24.04l-.45.06c-7.32.95-14.7 1.43-22.08 1.44zm-71.57-91.96c-1.75.004-3.49.284-5.16.831-10.2 3.283-16.88 15.154-18.21 25.139-2.39 18.09 13.91 32.88 20.87 39.19 22.45 20.34 56.5 28.75 95.97 23.68l.45-.06c18.67-2.4 41.9-5.38 62.17-23.62 27.5-24.76 43.35-73.382 23.06-106.316-6.47-10.512-16.14-18.897-28.75-24.936-.23 25.543-6.27 49.076-17.51 68.135-6.29 10.664-11.45 15.491-14.79 18.19-18.21 14.727-41.04 14.027-50 13.087-20.77-2.24-34.38-12.907-45.29-21.427-8.33-6.51-15.21-11.893-22.81-11.893z" fill="#191818"/><path d="m787.37 691.75c-.19 0-.38-.06-.53-.18s-.25-.29-.29-.48c-.04-.18-.02-.38.07-.55.08-.17.22-.31.4-.39.38-.18 38.46-18.207 47.24-52.196.02-.112.07-.219.13-.313.07-.094.15-.174.25-.235s.21-.101.32-.119c.11-.017.23-.012.34.017s.21.08.3.15.17.158.22.258c.06.1.09.211.1.325.02.114 0 .229-.03.338-4.69 18.19-17.55 31.721-27.5 39.848-6.36 5.244-13.29 9.753-20.67 13.437-.11.06-.23.09-.35.09z" fill="#191818"/><path d="m770.72 366.946 67.24-55.002c1.05-.865 2.32-1.434 3.67-1.65 1.34-.216 2.72-.071 3.99.42 1.28.491 2.39 1.311 3.25 2.376.85 1.066 1.4 2.337 1.6 3.686 1.82 12.673 2.32 25.515 2.44 45.461.13 19.947-6.89 38.232-11.66 68.259-16.53-27.838-41.13-49.999-70.53-63.55z" fill="#333"/><path d="m841.71 432.92-1.19-1.992c-16.44-27.692-40.9-49.737-70.15-63.219l-1.22-.561 68.28-55.872c1.17-.96 2.57-1.593 4.07-1.833 1.49-.24 3.02-.079 4.43.467 1.42.546 2.66 1.457 3.6 2.639.94 1.183 1.56 2.595 1.78 4.093 1.89 13.217 2.33 26.726 2.45 45.601.08 12.218-2.55 24.01-5.61 37.653-1.98 8.879-4.22 18.942-6.09 30.734zm-69.42-66.171c28.31 13.343 52.11 34.669 68.47 61.355 1.8-10.871 3.89-20.238 5.74-28.572 3.14-14.104 5.61-25.256 5.55-37.278-.12-18.802-.57-32.255-2.44-45.377-.18-1.2-.67-2.332-1.43-3.28s-1.76-1.677-2.89-2.114-2.36-.566-3.56-.374c-1.2.193-2.32.7-3.26 1.469z" fill="#191818"/><path d="m702.06 687.265c-.21.001-.4-.073-.56-.208-1.57-1.37-5.24-5.141-5.32-10.54-.07-4.754 2.65-8.06 3.54-9.149 4.55-5.539 11.26-6.044 19.05-6.633 4.39-.332 9.37-.708 14.5-2.066 9.04-2.391 17.6-7.605 25.44-15.496.16-.148.37-.229.59-.226.21.004.42.093.58.247.15.154.24.362.24.58.01.218-.07.43-.22.589-8.05 8.104-16.84 13.47-26.2 15.934-5.28 1.397-10.34 1.779-14.8 2.116-7.71.561-13.79 1.044-17.88 6.022-.79.971-3.21 3.929-3.16 8.059.07 4.715 3.37 8.071 4.75 9.294.17.148.27.356.28.579.02.223-.05.443-.2.611-.08.09-.18.162-.28.211-.11.05-.23.075-.35.076z" fill="#191818"/><path d="m726.76 515.244c47.42 0 85.87-29.399 85.87-65.665s-38.45-65.666-85.87-65.666c-47.43 0-85.88 29.4-85.88 65.666s38.45 65.665 85.88 65.665z" fill="#333"/><path d="m726.76 516.085c-47.82 0-86.72-29.836-86.72-66.507 0-36.672 38.9-66.508 86.72-66.508 47.81 0 86.71 29.836 86.71 66.508 0 36.671-38.9 66.507-86.71 66.507zm0-131.331c-46.87 0-85.03 29.078-85.03 64.824 0 35.745 38.16 64.823 85.03 64.823 46.86 0 85.02-29.078 85.02-64.823 0-35.746-38.16-64.824-85.02-64.824z" fill="#191818"/><path d="m672.03 463.048c9.77 0 17.68-7.915 17.68-17.679s-7.91-17.68-17.68-17.68c-9.76 0-17.67 7.916-17.67 17.68s7.91 17.679 17.67 17.679z" fill="#f8f59c"/><path d="m672.03 463.89c-3.66 0-7.24-1.087-10.29-3.122-3.04-2.035-5.41-4.927-6.82-8.312-1.4-3.384-1.77-7.108-1.05-10.701.71-3.592 2.48-6.892 5.07-9.483 2.59-2.59 5.89-4.354 9.48-5.068 3.59-.715 7.32-.348 10.7 1.053 3.39 1.402 6.28 3.776 8.31 6.822 2.04 3.046 3.13 6.627 3.13 10.29 0 4.912-1.96 9.623-5.43 13.096s-8.18 5.425-13.1 5.425zm0-35.359c-3.33 0-6.58.988-9.35 2.838s-4.93 4.48-6.2 7.556c-1.28 3.077-1.61 6.462-.96 9.728.65 3.267 2.25 6.267 4.61 8.621 2.35 2.355 5.35 3.959 8.62 4.608 3.27.65 6.65.317 9.73-.958 3.07-1.274 5.7-3.432 7.55-6.201s2.84-6.024 2.84-9.354c0-4.466-1.77-8.748-4.93-11.906s-7.44-4.932-11.91-4.932z" fill="#191818"/><path d="m850.23 317.125s-39.29 53.318-43.22 65.665c-2.94 9.233 10.45 4.659 17.4 1.763.3-.124.63-.155.95-.087s.61.23.83.465c.23.236.38.534.43.855s0 .65-.14.944l-4.66 9.839c-.29.631-.4 1.337-.3 2.028s.4 1.339.86 1.861c.46.523 1.07.898 1.74 1.078.68.181 1.39.159 2.05-.062l5.57-1.852c.29-.098.61-.11.91-.034.3.077.57.238.78.465.21.226.35.509.4.814.06.305.02.619-.1.905l-2.01 9.642 9.54 19.082c11.43-36.644 14.5-75.384 8.98-113.371z" fill="#f3d2c9"/><path d="m841.43 432.741-10.61-21.215 2.13-10.102c.05-.138.07-.288.05-.435-.03-.146-.1-.282-.2-.39-.1-.109-.23-.187-.38-.224-.14-.036-.29-.031-.43.016l-5.56 1.858c-.82.275-1.71.302-2.54.079-.84-.223-1.59-.687-2.16-1.334s-.94-1.449-1.06-2.304c-.12-.856.01-1.728.38-2.508l4.66-9.839c.07-.141.09-.3.07-.454-.03-.155-.1-.298-.21-.41-.1-.114-.24-.193-.4-.225-.15-.032-.31-.016-.45.045-9.42 3.929-15.42 4.816-17.83 2.616-1.23-1.123-1.46-2.953-.68-5.405 3.93-12.348 41.73-63.729 43.34-65.913l1.22-1.65.29 2.026c5.55 38.111 2.48 76.98-8.98 113.748zm-8.84-21.439 8.47 16.938c10.68-35.273 13.63-72.435 8.62-108.949-6.66 9.126-38.41 52.897-41.86 63.752-.57 1.779-.5 3.008.21 3.659 1.77 1.622 7.77.528 16.04-2.929.46-.19.97-.235 1.45-.132.49.103.93.351 1.27.71.34.36.57.814.65 1.304.08.489.01.992-.21 1.44l-4.65 9.833c-.23.482-.31 1.02-.24 1.548.08.528.3 1.022.66 1.421.35.4.81.686 1.33.825.51.139 1.06.123 1.56-.045l5.56-1.852c.44-.147.92-.167 1.37-.057s.86.346 1.18.68c.32.333.54.751.64 1.205.09.454.05.926-.11 1.36z" fill="#000"/><path d="m685.78 369.32c-24.61-15.26-50.14-31.485-74.758-46.745-5.091-3.155-13.28.909-13.352 6.897-.152 12.802-2.245 26.996 1.683 46.583 2.116 10.574 3.059 16.041 5.197 23.292 2.872 9.748 6.579 19.231 11.079 28.343 2.895-5.705 6.275-11.15 10.101-16.276 3.23-4.327 14.91-19.318 35.92-31.43 7.65-4.399 15.74-7.973 24.13-10.664z" fill="#333"/><path d="m615.618 429.569-.741-1.509c-4.519-9.155-8.244-18.68-11.135-28.472-1.801-6.112-2.806-11.073-4.265-18.577-.292-1.482-.606-3.07-.949-4.793-3.036-15.154-2.492-27.125-2.015-37.665.146-3.166.281-6.174.315-9.092.033-2.919 1.88-5.77 4.939-7.448 3.255-1.791 6.97-1.847 9.698-.152 12.308 7.622 25.045 15.625 37.375 23.365 12.32 7.739 25.07 15.748 37.39 23.381l1.55.96-1.74.561c-8.34 2.673-16.37 6.223-23.97 10.591-18.89 10.894-30.46 24.223-35.66 31.205-3.8 5.089-7.154 10.492-10.029 16.153zm-8.649-107.242c-1.537.013-3.046.412-4.388 1.162-2.52 1.381-4.041 3.62-4.069 5.994-.034 2.963-.175 5.966-.315 9.143-.477 10.45-1.016 22.287 1.981 37.266.343 1.723.657 3.306.955 4.793 1.521 7.723 2.441 12.392 4.226 18.426 2.704 9.165 6.146 18.095 10.293 26.704 2.744-5.205 5.889-10.189 9.408-14.907 5.29-7.083 17.01-20.609 36.17-31.654 7.18-4.126 14.74-7.532 22.59-10.17-11.84-7.346-24.05-15.013-35.87-22.449-12.35-7.74-25.058-15.715-37.361-23.365-1.096-.644-2.349-.97-3.62-.943z" fill="#191818"/><path d="m597.669 328.349s42.311 37.008 47.541 46.701c.31.561 1.62 3.154.65 4.327-1.85 2.245-9.77-3.412-13.39-.516-.37.299-.68.664-.91 1.077-.41.766-.59 1.634-.51 2.498.07.865.39 1.689.93 2.374 1.21 1.61 2.8 4.192 2.65 6.645 0 .729-.22 1.44-.64 2.037-1.09 1.325-3.1 1.336-3.66 1.336-3.67 0-5.66-3.542-5.75-3.704-.48-.388-1.08-.593-1.696-.58-.616.014-1.208.245-1.67.653-.293.307-.478.701-.528 1.122-.13.971.03 1.96.46 2.84 1.218 2.464-.207 10.411-1.038 13.992-1.254 5.342-3.337 10.455-6.174 15.153-5.051-11.034-11.87-28.623-15.153-49.95-1.783-11.648-2.439-23.44-1.959-35.213.213-4.394.567-8.098.847-10.792z" fill="#f3d2c9"/><path d="m613.946 425.164h-.045c-.153-.008-.302-.059-.429-.146-.126-.087-.226-.208-.289-.348-7.362-15.943-12.488-32.825-15.232-50.17-1.792-11.695-2.452-23.536-1.97-35.358.168-3.62.449-7.296.841-10.866.014-.154.07-.302.163-.427.092-.125.217-.222.361-.28s.302-.075.455-.049c.153.025.296.093.413.195 1.729 1.515 42.476 37.222 47.706 46.937.56 1.077 1.81 3.76.56 5.264-1.24 1.504-3.52.752-6.21-.039-2.68-.791-5.68-1.684-7.29-.359-.29.231-.53.515-.7.836-.33.62-.47 1.321-.4 2.018.06.697.32 1.36.76 1.911 1.36 1.813 2.95 4.54 2.8 7.195-.01.908-.3 1.791-.83 2.526-.89 1.083-2.34 1.638-4.3 1.644-3.78 0-5.94-3.222-6.396-3.99-.32-.209-.698-.309-1.078-.287-.381.022-.745.166-1.038.41-.162.188-.262.421-.286.668-.101.799.033 1.611.387 2.335 1.588 3.21-.707 13.402-.977 14.553-1.272 5.427-3.388 10.622-6.269 15.395-.071.126-.173.232-.297.308s-.265.118-.41.124zm-15.608-95.109c-.303 3.037-.522 6.107-.662 9.143-.482 11.717.17 23.453 1.947 35.044 2.626 16.661 7.476 32.895 14.418 48.267 2.382-4.23 4.153-8.776 5.259-13.503.994-4.283 2.111-11.399 1.123-13.431-.524-1.04-.72-2.214-.561-3.367.075-.607.347-1.173.774-1.611.615-.548 1.404-.859 2.227-.876.824-.018 1.627.259 2.267.78.07.062.14.141.18.231 0 .033 1.8 3.26 5 3.26 1.44 0 2.45-.348 3-1.027.31-.459.47-.999.46-1.549.11-2.149-1.29-4.49-2.49-6.095-.63-.814-1.01-1.796-1.1-2.825-.08-1.029.13-2.06.63-2.967.28-.506.66-.954 1.12-1.319 2.32-1.852 5.78-.836 8.83.062 1.76.516 3.93 1.156 4.45.561.37-.454.05-1.908-.75-3.367-4.6-8.548-39.146-39.254-46.122-45.411z" fill="#000"/><path d="m672.03 457.996c6.98 0 12.63-5.654 12.63-12.628s-5.65-12.628-12.63-12.628c-6.97 0-12.62 5.654-12.62 12.628s5.65 12.628 12.62 12.628z" fill="#000"/><path d="m672.03 458.838c-2.66 0-5.26-.79-7.48-2.27-2.21-1.48-3.94-3.584-4.96-6.045s-1.29-5.17-.77-7.783c.52-2.612 1.81-5.013 3.69-6.896 1.88-1.884 4.28-3.167 6.9-3.687 2.61-.519 5.32-.253 7.78.767 2.46 1.019 4.56 2.746 6.04 4.961s2.27 4.819 2.27 7.483c0 3.573-1.42 6.999-3.94 9.525-2.53 2.526-5.95 3.945-9.53 3.945zm0-25.256c-2.33 0-4.61.691-6.54 1.986-1.94 1.296-3.45 3.136-4.34 5.29-.9 2.154-1.13 4.523-.68 6.81.46 2.286 1.58 4.386 3.23 6.034 1.65 1.649 3.75 2.771 6.03 3.226 2.29.455 4.66.221 6.81-.671 2.16-.892 4-2.402 5.29-4.341 1.3-1.938 1.99-4.217 1.99-6.548 0-3.126-1.24-6.123-3.45-8.334-2.21-2.21-5.21-3.452-8.34-3.452z" fill="#191818"/><path d="m785.41 463.048c9.76 0 17.67-7.915 17.67-17.679s-7.91-17.68-17.67-17.68c-9.77 0-17.68 7.916-17.68 17.68s7.91 17.679 17.68 17.679z" fill="#f8f59c"/><path d="m785.4 463.89c-3.66 0-7.24-1.087-10.28-3.122-3.05-2.035-5.42-4.927-6.83-8.312-1.4-3.384-1.76-7.108-1.05-10.701.71-3.592 2.48-6.892 5.07-9.483 2.59-2.59 5.89-4.354 9.48-5.068 3.59-.715 7.32-.348 10.7 1.053 3.39 1.402 6.28 3.776 8.31 6.822 2.04 3.046 3.13 6.627 3.13 10.29 0 4.912-1.96 9.623-5.43 13.096s-8.18 5.425-13.1 5.425zm0-35.359c-3.33 0-6.58.988-9.35 2.838s-4.93 4.48-6.2 7.556c-1.28 3.077-1.61 6.462-.96 9.728.65 3.267 2.25 6.267 4.61 8.621 2.35 2.355 5.35 3.959 8.62 4.608 3.27.65 6.65.317 9.73-.958 3.07-1.274 5.7-3.432 7.55-6.201s2.84-6.024 2.84-9.354c0-4.466-1.77-8.748-4.93-11.906s-7.44-4.932-11.91-4.932z" fill="#191818"/><path d="m785.41 457.996c6.97 0 12.62-5.654 12.62-12.628s-5.65-12.628-12.62-12.628c-6.98 0-12.63 5.654-12.63 12.628s5.65 12.628 12.63 12.628z" fill="#000"/><path d="m785.41 458.838c-2.67 0-5.27-.79-7.49-2.27-2.21-1.48-3.94-3.584-4.96-6.045s-1.29-5.17-.77-7.783c.52-2.612 1.81-5.013 3.69-6.896 1.88-1.884 4.28-3.167 6.9-3.687 2.61-.519 5.32-.253 7.78.767 2.46 1.019 4.57 2.746 6.05 4.961s2.27 4.819 2.27 7.483c0 3.573-1.42 6.999-3.95 9.525s-5.95 3.945-9.52 3.945zm0-25.256c-2.34 0-4.61.691-6.55 1.986-1.94 1.296-3.45 3.136-4.34 5.29-.9 2.154-1.13 4.523-.67 6.81.45 2.286 1.57 4.386 3.22 6.034 1.65 1.649 3.75 2.771 6.04 3.226 2.28.455 4.65.221 6.81-.671 2.15-.892 3.99-2.402 5.29-4.341 1.29-1.938 1.98-4.217 1.98-6.548 0-3.126-1.24-6.123-3.45-8.334-2.21-2.21-5.21-3.452-8.33-3.452z" fill="#191818"/><path d="m722.69 448.809 5.75.769 5.27-.752c.23-.033.46 0 .67.095s.39.249.51.442.19.418.19.648c0 .231-.06.456-.19.65l-5.1 8.014c-.15.227-.35.414-.59.545s-.51.202-.78.206c-.28.004-.55-.057-.79-.18s-.45-.304-.61-.526l-5.48-8.042c-.13-.193-.2-.419-.21-.65 0-.232.06-.46.18-.657s.3-.355.51-.455.44-.137.67-.107z" fill="#f3d2c9"/><g fill="#000"><path d="m728.39 460.287c-.41-.002-.81-.106-1.17-.302-.37-.196-.67-.478-.9-.821l-5.48-8.037c-.22-.326-.35-.709-.36-1.104 0-.395.1-.784.31-1.12s.51-.605.86-.774c.36-.169.76-.231 1.15-.178l5.61.752 5.16-.741c.39-.054.78.004 1.13.167.36.163.66.423.87.751s.33.709.33 1.099c0 .391-.11.773-.32 1.103l-5.1 8.015c-.22.35-.52.64-.89.843-.36.203-.76.312-1.18.319zm-5.87-10.664c-.06 0-.12.016-.17.046-.05.031-.09.075-.12.128-.04.058-.07.126-.07.197 0 .07.03.139.07.196l5.48 8.037c.08.11.18.201.3.263s.25.095.39.096c.14 0 .27-.036.39-.103.12-.066.22-.162.29-.278l5.1-8.015c.04-.056.06-.124.06-.194 0-.069-.02-.137-.06-.193-.04-.059-.09-.107-.16-.136-.06-.029-.13-.038-.2-.027l-5.38.769-5.87-.78z"/><path d="m720.05 469.031c-.56 0-1.17-.034-1.8-.095-.22-.023-.43-.133-.57-.307-.14-.173-.21-.396-.19-.619.03-.224.14-.429.31-.571s.4-.209.62-.187c3.29.325 5.7-.292 7.16-1.841 2.14-2.245 1.61-5.809 1.6-5.848-.03-.223.02-.451.16-.633.13-.182.33-.304.55-.338.23-.034.46.022.64.155.18.134.3.334.34.558 0 .174.66 4.405-2.04 7.262-1.56 1.645-3.83 2.464-6.78 2.464z"/><path d="m736.46 469.592c-2.94 0-5.2-.819-6.73-2.453-2.7-2.856-2.07-7.088-2.04-7.262.04-.223.16-.424.34-.558.18-.133.41-.189.63-.155.23.034.43.156.56.338s.19.41.16.633c0 .062-.52 3.62 1.6 5.859 1.47 1.544 3.87 2.156 7.16 1.83.22-.022.44.045.62.187.17.142.28.348.3.571.03.223-.04.446-.18.62-.15.173-.35.284-.57.306-.67.05-1.27.084-1.85.084z"/><path d="m845.74 452.103c-.2-.002-.39-.075-.55-.206-.15-.132-.25-.313-.28-.511s.02-.4.12-.57c.11-.17.27-.297.46-.358l39.57-12.066c.21-.048.43-.016.61.091.18.106.32.278.38.481.07.204.05.423-.04.615-.1.192-.26.341-.46.418l-39.56 12.067c-.08.026-.17.039-.25.039z"/><path d="m884.46 466.696h-.12l-37.33-5.893c-.22-.034-.42-.156-.55-.338-.14-.182-.19-.41-.16-.633s.16-.424.34-.557c.18-.134.41-.19.63-.156l37.32 5.893c.23.017.43.122.58.292s.22.391.2.615c-.02.223-.12.43-.29.576s-.39.218-.62.201z"/><path d="m575.781 468.379c-.223.025-.447-.04-.622-.181-.175-.14-.288-.345-.312-.568-.025-.223.041-.447.181-.622.141-.176.345-.288.568-.312l33.955-7.577c.212-.034.428.014.605.134s.301.303.348.512c.048.208.014.427-.095.611-.108.185-.282.321-.487.382l-33.955 7.576c-.06.024-.122.039-.186.045z"/><path d="m611.139 451.542h-.129l-37.323-5.893c-.11-.017-.216-.056-.312-.114s-.179-.134-.245-.224-.114-.193-.141-.301c-.026-.109-.031-.222-.014-.332.017-.111.055-.217.113-.313.058-.095.134-.179.225-.245.09-.066.192-.114.301-.14.108-.027.221-.032.332-.015l37.322 5.893c.224.017.431.122.577.292.145.17.218.391.201.614-.017.224-.123.431-.293.577s-.39.218-.614.201z"/></g><path d="m190.93 115.919c25.015 11.432 53.487 37.104 87.391 69.864 52.078 50.321 84.636 131.572 94.85 162.199-3.238 1.504-16.966-23.954-20.204-22.45-10.816-29.6-32.143-77.929-78.013-125.157-37.491-38.602-70.156-67.164-96.534-79.697z" fill="#8bb174"/><path d="m372.852 348.907c-1.998 0-4.815-3.67-10.467-11.651-3.087-4.355-7.745-10.933-9.103-10.933l-.831.381-.264-.875c-17.623-48.267-43.081-89.081-77.827-124.86-41.532-42.784-72.154-68.051-96.287-79.523l-1.785-.841 14.682-5.613.326.146c23.959 10.956 51.292 34.921 87.621 70.026 22.641 21.889 43.929 51.719 63.286 88.705 17.78 34.028 28.141 62.983 31.766 73.843l.242.713-.685.314c-.209.106-.439.164-.674.168zm-19.318-24.262c1.987.292 4.799 3.979 10.221 11.634 2.525 3.575 6.1 8.627 8.059 10.31-5.612-16.422-38.08-106.075-94.076-160.212-36.043-34.809-63.168-58.617-86.835-69.538l-10.361 3.928c24.044 11.927 54.312 37.11 95.019 79.018 34.769 35.813 60.289 76.649 77.973 124.86z" fill="#000"/><path d="m329.985 366.323c-41.914-35.358-100.609-78.287-120.185-85.808-50.388-19.363-95.119-27.81-124.085-28.096 3.113-3.195 6.232-6.387 9.356-9.575 27.501-.123 67.13 7.515 111.687 23.011 17.87 6.224 86.275 50.782 135.26 95.776z" fill="#8bb174"/><path d="m329.826 367.288-.387-.32c-40.707-34.365-99.98-78.013-119.943-85.668-44.827-17.214-91.129-27.72-123.794-28.04h-1.97l10.978-11.225h.999c28.624 0 69.146 8.385 111.295 23.062 17.584 6.123 85.309 49.804 135.546 95.972l.993.915zm-242.142-115.684c32.72.696 78.271 11.163 122.446 28.124 20.059 7.706 79.242 51.231 120.044 85.629l10.271-4.018c-49.159-44.9-117.053-88.8-133.969-94.688-41.969-14.592-82.278-22.966-110.739-22.966h-.286z" fill="#000"/><path d="m373.755 349.003c-9.967-13.414-33.427-54.519-47.099-67.781-27.303-26.43-58.903-48.024-93.447-63.859l-12.521 4.737c38.307 18.268 73.045 43.229 102.578 73.708 9.934 10.265 30.554 48.138 38.4 58.37z" fill="#8bb174"/><path d="m361.397 355.222-.398-.517c-3.149-4.113-8.183-12.386-14.031-21.961-8.632-14.171-18.409-30.234-24.324-36.346-29.444-30.426-64.102-55.327-102.332-73.523l-1.762-.881 14.688-5.556.325.145c34.643 15.862 66.325 37.519 93.683 64.038 9.053 8.778 22.416 29.746 33.152 46.584 5.708 8.979 10.664 16.696 14.032 21.271l.639.853zm-138.571-133.015c37.71 18.209 71.909 42.932 101.024 73.029 6.045 6.247 15.878 22.394 24.549 36.644 5.337 8.761 10.389 17.056 13.526 21.288l10.501-4.49c-3.396-4.692-8.088-12.061-13.47-20.514-10.692-16.781-23.993-37.665-32.906-46.308-27.13-26.305-58.536-47.804-92.874-63.578z" fill="#000"/><path d="m741.91 656.677 19.08 42.653c-9.52 1.08-19.15.89-28.62-.56 0 0-16.39-1.9-27.27-10.1-7.57-5.682-7.93-9.684-8.02-10.879-.44-5.467 3.16-9.334 4.56-10.664l.42-.382c5.05-4.411 14.03-5.011 14.59-5.051 5.75-.353 13.69-1.841 25.26-5.017z" fill="#333"/><path d="m748.72 700.86c-5.52.01-11.03-.42-16.48-1.26-.65-.07-16.7-2.01-27.65-10.23-5.25-3.929-8.06-7.802-8.35-11.483-.44-5.489 2.81-9.457 4.82-11.338l.44-.404c4.99-4.366 13.47-5.146 15.09-5.258 6.07-.41 14.28-2.055 25.09-5.052l.7-.19 19.85 44.335-1.12.13c-4.11.48-8.25.73-12.39.75zm-7.3-43.178c-10.58 2.873-18.68 4.49-24.73 4.888-.95.062-9.42.747-14.09 4.844-.17.151-.33.297-.38.348-1.79 1.683-4.71 5.203-4.32 9.99.25 3.177 2.84 6.634 7.68 10.268 10.58 7.94 26.7 9.9 26.87 9.91 9.03 1.39 18.2 1.62 27.28.69z" fill="#191818"/><path d="m570.045 610.504 16.961-50.361c-11.521-.169-22.963 1.929-33.675 6.174-7.711 3.219-14.899 7.57-21.327 12.909-.561.477-8.419 7.228-8.699 13.733v.707c.129 5.484 4.114 8.98 5.646 10.103l.46.336c4.698 3.323 10.428 2.953 18.875 3.16 4.765.118 7.144.18 10.102.561 3.961.524 7.864 1.421 11.657 2.678z" fill="#333"/><path d="m570.045 611.351c-.09-.002-.179-.017-.264-.045-3.743-1.237-7.596-2.115-11.505-2.621-2.919-.382-5.293-.438-10.019-.562-1.06 0-2.082-.044-3.064-.061-6.943-.113-11.96-.197-16.276-3.25l-.483-.359c-2.172-1.684-5.842-5.265-5.977-10.77 0 0 0-.376 0-.769.303-6.814 8.11-13.588 8.98-14.34 6.524-5.387 13.807-9.782 21.613-13.043 10.814-4.278 22.361-6.395 33.989-6.23.134.001.266.034.385.097.118.062.22.152.297.262s.126.236.145.369c.018.133.004.268-.041.394l-16.961 50.361c-.058.169-.169.316-.317.417-.147.102-.323.155-.502.15zm15.715-50.378c-11.001 0-21.902 2.077-32.131 6.124-7.621 3.197-14.728 7.501-21.092 12.774-.331.28-8.132 6.92-8.419 13.121v.64c.118 4.816 3.368 8.015 5.315 9.491l.432.32c3.895 2.75 8.694 2.806 15.334 2.941.987 0 2.009.033 3.081.061 4.782.118 7.184.18 10.186.562 3.739.487 7.427 1.302 11.023 2.435l16.327-48.474z" fill="#191818"/><path d="m75.601 82.518-15.743-8.587c-3.925-2.141-7.129-5.396-9.206-9.356-2.078-3.959-2.936-8.445-2.468-12.891l1.319-12.465c.528-4.997 2.135-9.819 4.709-14.133 2.575-4.314 6.056-8.018 10.203-10.854 2.405-1.644 5.201-2.625 8.106-2.843 2.905-.219 5.816.332 8.44 1.597 1.514.705 3.065 1.327 4.647 1.863 18.283 6.462 34.914 16.882 48.705 30.515l-24.398 44.243z" fill="#da4e22"/><path d="m110.347 90.556-35.038-7.24-.112-.062-15.743-8.581c-4.073-2.218-7.395-5.596-9.547-9.704-2.151-4.109-3.034-8.764-2.537-13.374l1.319-12.466c.537-5.118 2.182-10.058 4.819-14.477s6.203-8.212 10.453-11.115c2.53-1.726 5.47-2.755 8.524-2.985s6.114.349 8.874 1.677c1.488.69 3.011 1.301 4.563 1.83 18.399 6.497 35.133 16.985 49.002 30.711l.455.443zm-34.454-8.84 33.584 6.943 23.792-43.143c-13.611-13.333-29.974-23.528-47.942-29.869-1.61-.539-3.189-1.165-4.731-1.875-2.493-1.201-5.257-1.723-8.016-1.515-2.759.207-5.415 1.139-7.699 2.7-4.049 2.764-7.448 6.377-9.961 10.587s-4.08 8.917-4.592 13.793l-1.319 12.465c-.46 4.281.361 8.602 2.359 12.416s5.084 6.949 8.866 9.007z" fill="#000"/><path d="m90.435 67.652-.388.028c-4.933.359-9.619 2.301-13.36 5.537s-6.338 7.592-7.406 12.422l-1.504 6.803c-1.557 7.045-.529 14.416 2.897 20.766s9.021 11.256 15.765 13.823l46.297 17.623 7.127-50.624-31.99-21.714c-5.121-3.476-11.266-5.12-17.438-4.664z" fill="#da4e22"/><path d="m133.426 145.817-47.285-17.994c-6.932-2.639-12.685-7.683-16.208-14.211s-4.581-14.106-2.98-21.349l1.504-6.797c1.086-5.018 3.773-9.547 7.656-12.905 3.882-3.359 8.751-5.365 13.873-5.717l.387-.028c6.356-.452 12.681 1.241 17.96 4.81l32.429 22.012zm-42.929-77.323-.388.028c-4.76.327-9.285 2.191-12.894 5.313s-6.105 7.332-7.114 11.996l-1.504 6.796c-1.479 6.846-.464 13.995 2.862 20.159s8.744 10.937 15.277 13.46l45.315 17.247 6.904-49.047-31.531-21.423c-4.967-3.359-10.918-4.954-16.899-4.529z" fill="#000"/><path d="m172.528 36.682-18.033-23.903c-3.441-4.568-8.112-8.06199-13.466-10.07199-5.354-2.011001-11.17-2.456014-16.768-1.28201l-5.91 1.24002c-2.859.596-5.526 1.888-7.765 3.763-2.238 1.875-3.979 4.27498-5.066 6.98498-1.088 2.71-1.489 5.646-1.167 8.549.321 2.902 1.355 5.68 3.009 8.086l15.154 21.496 47.486 17.18z" fill="#da4e22"/><path d="m170.754 69.897-48.772-17.646-15.31-21.714c-1.727-2.52-2.805-5.428-3.138-8.465-.334-3.036.088-6.109 1.226-8.943 1.139-2.835 2.96-5.34502 5.301-7.30702 2.342-1.963 5.131-3.31699 8.122-3.94199l5.915-1.235016c5.743-1.189 11.705-.7279829 17.196 1.330016 5.492 2.058 10.288 5.62898 13.835 10.29901l18.224 24.133-.028.32zm-47.705-19.049 46.196 16.714 2.391-30.599-17.837-23.651c-3.355-4.421-7.893-7.80302-13.089-9.75302-5.197-1.951-10.839-2.39099-16.275-1.26999l-5.916 1.24099c-2.717.569-5.253 1.799-7.381 3.582-2.129 1.784-3.784 4.06502-4.82 6.64102s-1.42 5.368-1.119 8.129c.302 2.76 1.28 5.403 2.848 7.695z" fill="#000"/><path d="m133.504 113.847c20.188 0 36.554-16.366 36.554-36.554s-16.366-36.554-36.554-36.554-36.554 16.366-36.554 36.554 16.366 36.554 36.554 36.554z" fill="#f8f59c"/><path d="m133.487 114.673c-6.084-.003-12.075-1.489-17.453-4.331-5.379-2.842-9.983-6.953-13.413-11.977s-5.583-10.81-6.271-16.854.109-12.165 2.323-17.832c2.213-5.666 5.775-10.707 10.378-14.685s10.106-6.773 16.034-8.142c5.927-1.369 12.099-1.272 17.98.285 5.881 1.556 11.293 4.523 15.767 8.645 5.54 5.098 9.41 11.75 11.106 19.085 1.696 7.334 1.138 15.01-1.601 22.023-2.739 7.012-7.531 13.034-13.749 17.277-6.218 4.244-13.573 6.511-21.101 6.506zm.028-73.074c-8.322.003-16.381 2.914-22.784 8.228-6.403 5.315-10.749 12.7-12.284 20.879-1.536 8.179-.166 16.637 3.873 23.913 4.039 7.275 10.493 12.911 18.246 15.933 7.754 3.022 16.32 3.24 24.217.616 7.897-2.623 14.629-7.924 19.033-14.985s6.202-15.439 5.084-23.685-5.082-15.842-11.207-21.476c-6.586-6.072-15.22-9.437-24.178-9.423z" fill="#191818"/><path d="m141.855 36.671-1.785 13.711c-.712 5.45.59 10.619 3.649 14.492l24.503 31.025 14.368 37.486c2.968-5.069 5.508-10.376 7.594-15.867 0 0 5.421-15.254 4.799-32.333-1.123-31.699-23.489-56.916-27.226-61.029-1.594-1.927-3.754-3.301-6.174-3.929-4.67-1.123-8.548 1.352-10.563 2.632-6.723 4.271-8.665 11.595-9.165 13.812z" fill="#da4e22"/><path d="m182.417 135.282-14.94-38.961-24.42-30.913c-3.21-4.064-4.563-9.435-3.822-15.154l1.802-13.784c.808-3.609 3.126-10.265 9.541-14.34 2.009-1.274 6.173-3.929 11.225-2.739 2.596.664 4.913 2.136 6.617 4.204 6.145 6.763 26.333 31.244 27.428 61.54.617 17.051-4.793 32.491-4.844 32.648-2.113 5.544-4.679 10.905-7.672 16.029zm-39.73-98.464-1.785 13.672c-.679 5.236.561 10.158 3.474 13.862l24.588 31.127.045.118 13.739 35.841c2.552-4.577 4.775-9.329 6.651-14.222.051-.135 5.349-15.288 4.743-31.991-1.078-29.746-20.946-53.818-27.008-60.491-1.479-1.799-3.491-3.082-5.747-3.665-4.321-1.032-7.964 1.28-9.917 2.52-5.882 3.71-8.026 9.867-8.783 13.229z" fill="#000"/><path d="m132.118 144.727-27.725-12.813c-5.678-2.633-10.095-7.39-12.3-13.248-2.204-5.858-2.02-12.347.513-18.07l5.764-13.009c3.22-7.264 9.072-13.039 16.377-16.163 7.306-3.124 15.524-3.365 23-.675l33.215 11.983c6.629 2.398 12.229 7.008 15.857 13.053 3.627 6.045 5.059 13.155 4.056 20.133-1.503 7.142-4.897 13.748-9.828 19.128-12.762 13.666-30.93 12.908-34.163 12.751-5.055-.224-10.041-1.26-14.766-3.07z" fill="#da4e22"/><path d="m148.956 148.695c-.774 0-1.476 0-2.088-.039-5.152-.23-10.233-1.292-15.047-3.143h-.056l-27.708-12.836c-5.863-2.744-10.421-7.669-12.704-13.726-2.282-6.057-2.108-12.766.485-18.697l5.759-13.009c3.324-7.445 9.335-13.361 16.832-16.565 7.498-3.203 15.928-3.459 23.605-.716l33.215 11.982c6.804 2.479 12.55 7.219 16.278 13.428 3.728 6.208 5.211 13.508 4.202 20.679v.062c-1.534 7.292-5.002 14.036-10.041 19.526-10.686 11.41-25.239 13.054-32.732 13.054zm-16.528-4.714c4.639 1.777 9.534 2.796 14.496 3.019 6.314.269 22.226-.404 33.507-12.482 4.824-5.261 8.144-11.722 9.614-18.706.95-6.783-.456-13.686-3.985-19.556-3.528-5.87-8.965-10.351-15.401-12.693l-33.214-11.988c-7.276-2.6-15.265-2.358-22.37.678-7.105 3.037-12.802 8.643-15.952 15.699l-5.764 13.015c-2.415 5.525-2.576 11.776-.449 17.419s6.375 10.231 11.837 12.787z" fill="#000"/><path d="m35.293 191.377-2.301-7.941c-1.45-5.005-1.107-10.358.969-15.137s5.754-8.683 10.401-11.04c4.161-2.105 8.826-3.01 13.472-2.613 4.646.396 9.09 2.079 12.834 4.858 7.066 2.369 39.034 13.93 55.456 47.42 5.694 11.704 8.804 24.496 9.12 37.508.015.83-.194 1.649-.604 2.372-.411.722-1.008 1.32-1.729 1.733-.721.412-1.54.623-2.37.611-.831-.012-1.643-.247-2.351-.681z" fill="#da4e22"/><path d="m130.609 250.012c-1.016-.004-2.011-.29-2.874-.825l-93.166-57.247-2.391-8.256c-1.5-5.192-1.144-10.745 1.007-15.702 2.151-4.958 5.963-9.011 10.779-11.462 4.274-2.185 9.072-3.134 13.855-2.743 4.784.392 9.363 2.109 13.225 4.96 11.786 3.962 40.466 16.489 55.816 47.806 5.769 11.805 8.911 24.72 9.21 37.856.035.984-.2 1.959-.681 2.818s-1.189 1.57-2.047 2.054c-.83.482-1.773.737-2.733.741zm-94.598-59.178 92.605 56.916c.581.36 1.248.556 1.931.568.682.013 1.356-.159 1.949-.498.593-.338 1.084-.831 1.42-1.425.337-.594.507-1.268.492-1.951-.292-12.896-3.371-25.577-9.024-37.171-15.154-30.857-43.497-43.143-55.002-47.016l-.129-.044-.107-.079c-3.614-2.689-7.909-4.313-12.398-4.688s-8.994.514-13.004 2.567c-4.469 2.269-8.008 6.027-10.005 10.624-1.998 4.598-2.33 9.748-.939 14.564z" fill="#000"/><path d="m9.13801 269.278 9.60899 7.156c2.865 2.127 5.956 3.934 9.215 5.388 3.91 1.724 7.928 3.192 12.028 4.395 8.873 2.604 30.761 9.013 55.102.056 18.667-6.87 30.268-19.644 36.319-27.984.417-.557.678-1.214.758-1.906.079-.691-.026-1.391-.306-2.028s-.724-1.188-1.286-1.597c-.563-.41-1.224-.662-1.917-.732l-105.682-11.983c-3.735-.423-7.511.305-10.822 2.087-3.30999 1.783-5.99599 4.535-7.69899 7.887-1.615 3.247-2.03199 6.96-1.17499 10.485.856 3.524 2.92999 6.633 5.85599 8.776z" fill="#da4e22"/><path d="m68.782 291.728c-12.908 0-23.308-3.053-29.016-4.726-4.136-1.209-8.188-2.69-12.129-4.433-3.318-1.478-6.463-3.317-9.378-5.484l-9.61401-7.133c-3.094-2.255-5.28599-5.535-6.18799-9.256-.901-3.72-.45301-7.64 1.26599-11.061 1.79-3.496 4.60002-6.365 8.05801-8.228 3.458-1.862 7.401-2.629 11.305-2.2l105.665 11.971c.837.09 1.635.399 2.315.895s1.217 1.162 1.558 1.931c.342.769.474 1.615.386 2.452-.089.837-.397 1.635-.892 2.316-6.667 9.193-18.448 21.557-36.71 28.281-8.529 3.122-17.544 4.705-26.626 4.675zm-59.144-23.151 9.626 7.133c2.811 2.095 5.848 3.87 9.053 5.293 3.872 1.73 7.854 3.203 11.92 4.411 9.126 2.677 30.498 8.935 54.581.073 17.859-6.572 29.393-18.684 35.92-27.686.324-.442.526-.962.584-1.507s-.029-1.096-.253-1.597c-.216-.499-.562-.932-1.001-1.253-.439-.322-.955-.521-1.497-.576l-105.687-11.989c-3.566-.39-7.165.314-10.321 2.018-3.15601 1.704-5.718 4.328-7.347 7.524-1.526 3.061-1.91901 6.563-1.11001 9.887.81 3.323 2.77001 6.252 5.53201 8.269z" fill="#000"/><path d="m1.426 212.453c1.2 5.028 3.47201 9.737 6.66101 13.806 3.18899 4.068 7.21899 7.4 11.81499 9.766l32.227 16.585c2.161.847 5.321 2.026 9.188 3.266 8.233 2.676 16.683 4.629 25.256 5.837 15.305 1.818 32.192-3.008 41.778-6.404.925-.328 1.776-.835 2.504-1.492.728-.658 1.32-1.452 1.741-2.339.42-.886.662-1.847.711-2.826.049-.98-.096-1.96-.426-2.884-5.736-15.878-14.189-25.02-18.953-29.443-8.801-8.166-19.481-13.616-28.018-17.96-5.404-2.759-10.947-5.237-16.607-7.425l-27.445-7.582c-9.078-2.492-18.772-1.315-26.99 3.277l-2.756 1.538c-4.178 2.336-7.481 5.969-9.41 10.35-1.928003 4.381-2.376004 9.271-1.276 13.93z" fill="#da4e22"/><path d="m93.668 262.964c-2.395.007-4.788-.128-7.167-.404-5.22-.623-15.019-2.531-25.442-5.87-3.109-.999-6.218-2.105-9.238-3.284l-.078-.033-32.227-16.591c-4.706-2.42-8.832-5.83-12.09502-9.996-3.263-4.166-5.58498-8.989-6.807983-14.137-1.143-4.843-.6790158-9.927 1.320983-14.483 2.001-4.556 5.43002-8.338 9.77002-10.773l2.755-1.538c8.416-4.721 18.359-5.916 27.653-3.322l27.501 7.604c5.687 2.201 11.258 4.691 16.691 7.459 8.61 4.395 19.318 9.856 28.203 18.1 8.418 7.79 14.85 17.809 19.172 29.774.369 1.029.531 2.121.476 3.213-.054 1.092-.323 2.162-.793 3.15-.469.987-1.129 1.872-1.942 2.603-.812.732-1.761 1.295-2.793 1.659-9.249 3.311-22.236 6.869-34.959 6.869zm-41.196-11.112c2.975 1.167 6.039 2.245 9.104 3.232 10.304 3.306 19.974 5.192 25.127 5.804 14.525 1.723 30.526-2.509 41.397-6.365.821-.29 1.577-.739 2.224-1.322.646-.582 1.172-1.287 1.545-2.074.374-.786.588-1.639.631-2.509.042-.869-.087-1.739-.382-2.558-4.231-11.719-10.534-21.507-18.734-29.118-8.71-8.082-19.307-13.47-27.821-17.83-5.369-2.737-10.875-5.199-16.495-7.375l-27.405-7.571c-8.867-2.468-18.35-1.328-26.379 3.171l-2.75 1.538c-4.02101 2.256-7.19802 5.759-9.05302 9.979-1.855 4.221-2.28598 8.931-1.22898 13.419 1.17 4.909 3.38799 9.507 6.50199 13.479 3.11301 3.972 7.04901 7.223 11.53701 9.532z" fill="#000"/><path d="m206.645 168.608c-.834-.015-1.662.154-2.424.496-.762.341-1.439.846-1.984 1.479-.544.633-.942 1.378-1.166 2.182-.224.805-.267 1.649-.128 2.472 2.245 13.29 7.959 42.609 15.906 50.018 10.366 9.664 27.024 65.312 73.354 53.576 31.812-8.06 22.035-41.263 12.774-61.299-5.129-11.136-13.273-20.614-23.51-27.361-10.17-6.639-21.233-11.798-32.855-15.322-12.968-3.925-26.419-6.026-39.967-6.241z" fill="#da4e22"/><path d="m277.866 281.283c-28.18 0-43.625-26.435-53.318-43.047-3.204-5.489-5.971-10.232-8.261-12.348-7.908-7.369-13.52-34.797-16.164-50.512-.161-.945-.112-1.914.145-2.839.256-.924.714-1.78 1.339-2.507.626-.727 1.404-1.307 2.28-1.698s1.827-.585 2.786-.566c13.631.212 27.167 2.328 40.213 6.286 11.692 3.547 22.82 8.738 33.051 15.417 10.374 6.827 18.624 16.427 23.814 27.709 6.55 14.166 12.959 33.983 6.308 47.93-3.44 7.218-10.046 12.112-19.643 14.536-4.099 1.067-8.314 1.618-12.55 1.639zm-71.328-111.839c-.704.002-1.398.156-2.036.454-.638.297-1.203.73-1.656 1.267-.454.538-.785 1.169-.97 1.847-.185.679-.22 1.39-.103 2.084 2.099 12.465 7.824 42.25 15.648 49.541 2.469 2.301 5.163 6.914 8.575 12.751 10.816 18.521 28.921 49.513 63.982 40.629 9.075-2.302 15.311-6.887 18.521-13.633 6.37-13.358.079-32.659-6.314-46.499-5.058-10.997-13.101-20.354-23.213-27.007-10.098-6.592-21.081-11.717-32.619-15.221-12.898-3.909-26.278-6-39.753-6.213z" fill="#000"/><path d="m392.889 340.978c1.611-.842-15.226-164.164-62.371-227.023-47.144-62.859-58.369-72.962-58.369-72.962s-1.123 47.706 19.082 81.38c20.205 33.675 43.777 89.799 50.512 102.147 6.735 12.347 31.43 125.157 31.43 125.157z" fill="#8bb174"/><path d="m372.571 350.861-.219-1.005c-.252-1.122-24.751-112.81-31.351-124.933-2.178-3.99-6.095-12.515-11.056-23.308-10.254-22.298-25.745-55.99-39.439-78.81-20.098-33.495-19.2-81.352-19.2-81.835l.045-1.829 1.358 1.229c.46.409 11.825 10.871 58.482 73.079 24.43 32.552 40.258 91.483 49.226 135.181 9.968 48.542 13.936 89.799 13.352 92.432-.025.141-.082.276-.165.393-.084.118-.192.215-.317.286h-.057zm-99.581-307.831c.078 9.423 1.464 49.732 18.97 78.911 13.733 22.893 29.252 56.641 39.517 78.967 4.95 10.764 8.862 19.267 11.011 23.207 6.449 11.831 28.669 112.445 31.29 124.377l18.38-8.076c.27-4.557-3.968-45.562-13.402-91.483-8.941-43.496-24.695-102.146-48.912-134.44-37.851-50.501-52.623-67.018-56.854-71.463z" fill="#000"/></g></svg>