<svg width="902" height="886" viewBox="0 0 902 886" fill="none" xmlns="http://www.w3.org/2000/svg">
<g clip-path="url(#clip0_13_90)">
<path fill-rule="evenodd" clip-rule="evenodd" d="M781 794.34C783.36 782.04 785.73 772.53 788.09 765.82C790.46 759.11 795.03 748.947 801.81 735.341C807.16 748.094 810.79 757.47 812.69 763.47C814.59 769.48 815.53 774.56 815.53 778.71C815.74 774.74 816.84 770.44 818.84 765.82C820.84 761.19 824.46 754.55 829.72 745.891C835.53 756.36 839.63 764.3 842.01 769.73C844.4 775.15 847.39 783.36 851 794.34H781ZM616 824.34C617.96 812.04 619.92 802.53 621.88 795.82C623.84 789.11 627.63 778.95 633.24 765.34C637.68 778.09 640.68 787.47 642.26 793.47C643.83 799.48 644.61 804.56 644.61 808.71C644.78 804.74 645.69 800.44 647.35 795.82C649.01 791.19 652.01 784.55 656.36 775.89C661.18 786.36 664.58 794.3 666.55 799.73C668.53 805.15 671.01 813.36 674 824.34H616Z" fill="#FF946A"/>
<path fill-rule="evenodd" clip-rule="evenodd" d="M555.74 802.79V750.192H611.48V802.79" fill="#F4E5AD"/>
<path fill-rule="evenodd" clip-rule="evenodd" d="M668.89 805.03V772.02H741.91V793.28V816.22" fill="#F4E5AD"/>
<path fill-rule="evenodd" clip-rule="evenodd" d="M741.35 882.25V792.72H842.8V881.75" fill="#F4E5AD"/>
<path fill-rule="evenodd" clip-rule="evenodd" d="M550.17 837.49V783.77H561.31V793.28H568V783.77H579.71V793.28H586.4V783.77H598.1V793.28H604.79V783.77H618.73V840.85" fill="#AFA26E"/>
<path fill-rule="evenodd" clip-rule="evenodd" d="M833.88 882.25V750.192H888.51V881.5" fill="#DACA8B"/>
<path fill-rule="evenodd" clip-rule="evenodd" d="M539.02 836.37V881.69H633.77V867.03C633.77 850.09 647.5 836.37 664.43 836.37C681.36 836.37 695.09 850.09 695.09 867.03V881.69H746.37V793.28H731.88L729.65 805.03H719.61V793.28H700.11V805.03H690.07V793.28H671.12V805.03H661.64V793.28H642.69V811.19H624.3L607.02 836.37H539.02Z" fill="#DACA8B"/>
<path fill-rule="evenodd" clip-rule="evenodd" d="M534 871.06H638.79V882.25H534V871.06ZM692.3 871.06H751.39V882.25H692.3V871.06Z" fill="#AFA26E"/>
<path fill-rule="evenodd" clip-rule="evenodd" d="M568 825.18V807.25C568 804.79 570 802.79 572.46 802.79C574.92 802.79 576.92 804.79 576.92 807.25V825.18H568ZM775.91 853.16V835.23C775.91 832.77 777.91 830.77 780.37 830.77C782.83 830.77 784.83 832.77 784.83 835.23V853.16H775.91ZM591.97 825.18V807.25C591.97 804.79 593.97 802.79 596.43 802.79C598.89 802.79 600.89 804.79 600.89 807.25V825.18H591.97ZM799.88 853.16V835.23C799.88 832.77 801.88 830.77 804.34 830.77C806.8 830.77 808.8 832.77 808.8 835.23V853.16H799.88ZM857.29 802.79V784.87C857.29 782.41 859.29 780.41 861.75 780.41C864.22 780.41 866.21 782.41 866.21 784.87V802.79H857.29ZM857.29 852.04V834.11C857.29 831.65 859.29 829.65 861.75 829.65C864.22 829.65 866.21 831.65 866.21 834.11V852.04H857.29ZM715.71 871.06V853.13C715.71 848.82 719.21 845.32 723.52 845.32C727.83 845.32 731.32 848.82 731.32 853.13V871.06H715.71Z" fill="#334E62"/>
<path fill-rule="evenodd" clip-rule="evenodd" d="M690.23 706.362L707.35 667.933L729.58 717.827C731.29 720.867 732.99 723.821 734.66 726.69C740.77 737.119 750.06 752.228 762.53 772.02C738.41 774.9 719.74 776.34 706.5 776.34C693.26 776.34 674.41 774.9 649.94 772.02C663.72 751.908 673.57 736.799 679.48 726.69C683.12 720.465 686.71 713.689 690.23 706.362ZM542.92 750.192C552.73 740.724 559.42 731.025 562.98 721.094C566.55 711.163 573.61 692.883 584.17 666.254C594.69 692.401 601.75 710.68 605.35 721.094C608.95 731.507 615.45 741.207 624.86 750.192C611.85 752.431 598.1 753.55 583.61 753.55C569.12 753.55 555.55 752.431 542.92 750.192ZM820.5 752.431C830.32 742.963 837 733.263 840.57 723.332C844.14 713.401 851.2 695.121 861.75 668.493C872.27 694.639 879.33 712.919 882.93 723.332C886.53 733.745 893.03 743.445 902.44 752.431C889.44 754.67 875.69 755.79 861.19 755.79C846.7 755.79 833.14 754.67 820.5 752.431Z" fill="#334E62"/>
<path fill-rule="evenodd" clip-rule="evenodd" d="M646.4 377.081C659.55 425.07 658.18 463.98 642.3 493.81C626.42 523.64 620.39 561.265 624.23 606.686L663.86 556.262C663.28 585.231 663.64 607.345 664.94 622.603C666.24 637.86 669.04 652.892 673.35 667.7L692.62 625.096C701.01 643.759 710.19 659.325 720.15 671.795C730.12 684.265 746.29 700.425 768.66 720.274C772.86 689.992 774.88 667.001 774.72 651.3C774.57 635.599 772.17 620.227 767.53 605.185L794.77 633.961C796.58 619.254 794.76 605.805 789.31 593.615C783.87 581.424 776.06 564.673 765.88 543.361L808.8 576.227C795.72 535.909 771.9 502.192 737.36 475.076C702.82 447.96 681.7 415.875 673.98 378.82C669.35 376.716 665.24 375.52 661.62 375.233C658 374.946 652.93 375.562 646.4 377.081Z" fill="#FF946A"/>
<path fill-rule="evenodd" clip-rule="evenodd" d="M658.34 377.192C664.21 403.605 668.65 425.52 671.68 442.937C673.72 454.68 675.69 471.726 677.6 494.073C679.62 517.636 689.92 539.723 706.68 556.41L721.13 570.803L722.97 563.613C729.4 538.501 725.83 511.874 713 489.346C702.09 470.166 693.77 454.512 688.07 442.385C679.25 423.652 671.26 401.341 664.11 375.451L658.34 377.192Z" fill="#FFE676"/>
<path fill-rule="evenodd" clip-rule="evenodd" d="M491 652.998C486.5 664.118 482.235 672.031 478.207 676.738C476.09 679.211 473.39 682.11 470.106 685.435C469.182 686.371 467.673 686.381 466.737 685.456C466 684.728 465.818 683.607 466.288 682.683L471.533 672.361C472.11 671.224 471.657 669.835 470.52 669.258C470.392 669.193 470.258 669.14 470.121 669.099C468.545 668.64 466.858 669.3 466.012 670.707L454.697 689.529C454.127 690.476 452.899 690.782 451.952 690.213C451.283 689.811 450.909 689.056 450.994 688.281L453.314 667.142L469.302 645.341L491 652.998Z" fill="#437BA6"/>
<path fill-rule="evenodd" clip-rule="evenodd" d="M291 641.001L205.858 536.341L54.289 583.329C52.707 583.82 51.821 585.5 52.312 587.083C52.67 588.239 53.688 589.066 54.892 589.181L129.622 596.318L149.086 637.466C149.765 638.901 151.444 639.559 152.917 638.966L197.294 621.124L229.966 646.519C230.489 646.926 231.132 647.148 231.795 647.151L278.657 647.341L291 641.001Z" fill="#334E62"/>
<path fill-rule="evenodd" clip-rule="evenodd" d="M392.31 625.839L425.615 674.902L436.941 647.731C438.613 643.722 441.261 640.196 444.646 637.474C455.836 628.475 472.202 630.251 481.201 641.441L491 653.625L481.888 653.498C475.835 653.414 470.194 656.554 467.077 661.744L433.688 717.341L393.923 688.656L396.71 797.25L426.645 827.08L456.742 834.2C458.095 834.52 459.255 835.39 459.941 836.6C461.302 839 460.458 842.05 458.055 843.41L413.456 868.68C413.447 868.69 413.438 868.69 413.428 868.7C401.407 875.49 386.156 871.25 379.365 859.23L347.503 802.83H314.512V862.59L334.093 873.53C335.358 874.24 336.142 875.58 336.142 877.03C336.142 879.23 334.351 881.03 332.142 881.03H263.819C263.093 881.03 262.367 880.98 261.646 880.89C251.778 879.69 244.751 870.72 245.95 860.85L253.004 802.83L148.034 858.73C142.953 861.44 137.428 863.21 131.722 863.96L0 881.25L206.034 726.872L255.11 616.265C255.871 614.549 256.81 612.95 257.901 611.484L256.099 611.486L274.515 175.983C276.739 123.404 319.332 81.546 371.942 80.239L649.5 73.341C702.5 71.674 729 102.008 729 164.341C729 173.712 718.17 223.712 696.5 314.341C710.13 326.404 711.4 347.231 699.34 360.86C698.57 361.722 697.77 362.543 696.92 363.32C696.85 363.38 696.79 363.44 696.72 363.501C694.56 365.534 692.22 367.315 689.75 368.834L690.67 374.146C691.02 376.196 690.87 378.3 690.24 380.282C688.07 387.125 680.76 390.912 673.92 388.739L658.65 383.892L646.7 390.903C645.43 391.648 644.04 392.172 642.6 392.452C635.55 393.819 628.73 389.213 627.36 382.164L623.73 363.413L623.5 363.341L601 314.341L516 246.341L446.659 242.209C437.033 241.636 428.666 248.749 427.682 258.342L391.849 607.878L392.31 625.839Z" fill="#7AC6FF"/>
<path fill-rule="evenodd" clip-rule="evenodd" d="M702.12 260.335C707.28 256.229 719.61 259.735 718.74 269.546C717.88 279.357 710.95 294.953 699.28 285.057C687.62 275.161 696.97 264.44 702.12 260.335ZM607.06 264.051C609.58 257.962 622.06 255.051 626.06 264.051C630.06 273.051 631.56 290.051 616.56 287.051C601.56 284.051 604.55 270.139 607.06 264.051Z" fill="white"/>
<path fill-rule="evenodd" clip-rule="evenodd" d="M698.06 275.142C698.08 273.761 699.22 272.662 700.6 272.686L711.6 272.878C712.98 272.902 714.08 274.041 714.05 275.421C714.03 276.802 712.89 277.901 711.51 277.877L700.51 277.685C699.13 277.661 698.03 276.522 698.06 275.142ZM610.5 275.201C610.53 273.821 611.66 272.721 613.04 272.745L624.04 272.937C625.42 272.961 626.52 274.1 626.5 275.48C626.47 276.861 625.34 277.961 623.96 277.936L612.96 277.744C611.58 277.72 610.48 276.582 610.5 275.201Z" fill="#334E62"/>
<path fill-rule="evenodd" clip-rule="evenodd" d="M252.651 802.25L237 886.34L332.451 885.84C336.869 885.82 340.432 882.22 340.409 877.8C340.402 876.45 340.052 875.12 339.394 873.94L338.174 871.76L318.051 862.23L314.697 802.81L252.651 802.25Z" fill="#437BA6"/>
<path fill-rule="evenodd" clip-rule="evenodd" d="M225.651 517.355L93.698 538.993C92.063 539.261 90.955 540.804 91.223 542.439C91.418 543.631 92.31 544.589 93.485 544.871L178.848 565.308L185.044 607.359C185.276 608.934 186.699 610.053 188.284 609.909L251.311 604.168L265.57 634.336C266.009 635.263 266.891 635.902 267.908 636.03L326.492 643.396L336.591 654.381C338.157 656.085 340.73 656.394 342.655 655.11C344.558 653.84 345.198 651.342 344.141 649.314L339.713 640.819C339.445 640.306 339.183 639.79 338.926 639.272L296.524 553.719C283.452 527.346 254.698 512.592 225.651 517.355Z" fill="#437BA6"/>
<path fill-rule="evenodd" clip-rule="evenodd" d="M262.849 467.093L201.195 510.888C199.845 511.848 197.972 511.531 197.012 510.18C196.381 509.291 196.281 508.131 196.752 507.148L268.6 357.021L212.172 384.185C210.679 384.904 208.887 384.276 208.168 382.783C207.786 381.99 207.772 381.069 208.129 380.265L272.008 236.368L233.878 256.569C232.414 257.345 230.599 256.786 229.823 255.322C229.38 254.486 229.357 253.489 229.763 252.633L280.248 146.085L262.849 467.093ZM484.043 76.639L429.72 136.97C427.872 139.022 424.71 139.188 422.658 137.34C421.169 136 420.625 133.9 421.274 132.005L436.554 87.385L344.496 154.684C342.266 156.313 339.138 155.827 337.508 153.598C336.438 152.134 336.244 150.205 337.003 148.557L368.109 80.956L484.043 76.639Z" fill="#334E62"/>
<path fill-rule="evenodd" clip-rule="evenodd" d="M206 727.341L162.088 736.079C160.463 736.402 159.408 737.982 159.731 739.607C159.795 739.925 159.909 740.23 160.07 740.512L166.333 751.454L128.876 761.26C127.273 761.68 126.314 763.32 126.733 764.92C126.879 765.48 127.183 765.99 127.609 766.37L135.773 773.86L96.133 783.96C94.528 784.37 93.558 786 93.967 787.61C94.207 788.55 94.889 789.32 95.796 789.67L108.547 794.58L65.514 811.22C63.968 811.81 63.2 813.55 63.797 815.1C64.165 816.05 64.991 816.75 65.99 816.95L82.432 820.34L206 727.341Z" fill="#334E62"/>
<path fill-rule="evenodd" clip-rule="evenodd" d="M638.79 291.942C638.67 297.904 608.38 264.174 570.24 179.902C556.61 149.777 534.42 89.81 503.665 0L561.81 97.17L573.64 31.021L595.83 154.598L613.47 125.01C630.54 227.139 638.98 282.783 638.79 291.942ZM695.86 287.07C693.15 290.806 688.94 255.88 702.1 185.335C706.81 160.117 719.29 112.119 739.56 41.341L733.32 128.99L770 92.208L729.42 180.64L753.61 169.684C719.27 242.202 700.02 281.331 695.86 287.07Z" fill="#334E62"/>
<path d="M696.93 314.377C696.73 314.89 696.14 315.141 695.63 314.937C695.12 314.733 694.87 314.152 695.07 313.639C704.29 290.418 720.77 284.522 743.95 296.113C750.39 299.334 757.06 305.456 764.93 314.887C768.11 318.706 771.46 323.004 775.59 328.541C777.8 331.509 785.49 341.977 786.54 343.397C801.31 363.334 811.1 374.583 821.97 382.623C835.77 392.83 849.12 395.305 863.09 388.931C868.2 386.597 872.82 384.293 876.93 382.021C891.75 373.838 897.13 355.193 888.95 340.376C887.39 337.565 885.41 335.016 883.07 332.821C875.82 326.034 864.44 326.407 857.65 333.654C857.13 334.214 856.64 334.807 856.19 335.43L853.31 339.426C852.99 339.874 852.36 339.975 851.92 339.652C851.47 339.329 851.37 338.704 851.69 338.256L854.57 334.26C855.07 333.569 855.61 332.91 856.19 332.287C863.74 324.233 876.38 323.819 884.43 331.361C886.93 333.699 889.04 336.415 890.7 339.409C899.41 355.193 893.68 375.055 877.9 383.771C873.74 386.07 869.08 388.396 863.92 390.751C849.23 397.454 835.13 394.84 820.78 384.231C809.7 376.037 799.82 364.678 784.94 344.587C783.88 343.162 776.19 332.698 773.98 329.737C769.87 324.226 766.55 319.955 763.39 316.169C755.68 306.932 749.19 300.972 743.05 297.902C720.9 286.827 705.71 292.264 696.93 314.377ZM627.57 317.377C618.79 295.264 603.6 289.827 581.45 300.902C573.27 304.989 565.21 314.761 554.68 331.973C552.95 334.805 551.13 337.848 548.98 341.543C548.13 342.991 547.26 344.482 546.11 346.47C546.23 346.265 543.88 350.314 543.23 351.44C529.449 375.177 521.654 386.696 512.203 395.287C499.709 406.644 487.207 408.331 473.913 398.65C451.336 382.208 447.312 363.634 462.019 343.384C468.877 333.942 482.089 331.847 491.53 338.705C494.915 341.163 497.494 344.57 498.94 348.496C499.131 349.014 498.865 349.589 498.347 349.78C497.829 349.97 497.254 349.705 497.063 349.187C495.754 345.633 493.419 342.548 490.355 340.323C481.807 334.115 469.846 336.011 463.638 344.559C449.61 363.873 453.367 381.213 475.09 397.033C487.559 406.113 499.022 404.565 510.858 393.807C520.1 385.406 527.828 373.985 541.5 350.436C542.15 349.311 544.5 345.262 544.38 345.467C545.53 343.477 546.4 341.984 547.25 340.534C549.41 336.828 551.23 333.774 552.97 330.929C563.7 313.403 571.93 303.425 580.55 299.113C603.74 287.522 620.21 293.418 629.43 316.639C629.63 317.152 629.38 317.733 628.87 317.937C628.36 318.141 627.78 317.89 627.57 317.377Z" fill="#334E62"/>
<path fill-rule="evenodd" clip-rule="evenodd" d="M628.5 316.841C643.07 318.287 652.91 322.787 658 330.341C663.09 337.895 661.43 348.228 653 361.341L628.5 316.841Z" fill="#437BA6"/>
</g>
<defs>
<clipPath id="clip0_13_90">
<rect width="902" height="886" fill="white"/>
</clipPath>
</defs>
</svg>
