<svg version="1.1" xmlns="http://www.w3.org/2000/svg" viewBox="0 0 472.72372635333613 536.1110969341169" width="945.4474527066723" height="1072.2221938682337">
  <!-- svg-source:excalidraw -->
  
  <defs>
    <style class="style-fonts">
      @font-face {
        font-family: "Virgil";
        src: url("https://excalidraw.com/Virgil.woff2");
      }
      @font-face {
        font-family: "Cascadia";
        src: url("https://excalidraw.com/Cascadia.woff2");
      }
      @font-face {
        font-family: "Assistant";
        src: url("https://excalidraw.com/Assistant-Regular.woff2");
      }
    </style>
    
  </defs>
  <rect x="0" y="0" width="472.72372635333613" height="536.1110969341169" fill="#ffffff"></rect><g stroke-linecap="round" transform="translate(18.309289446364346 48.87417869373917) rotate(0 222.2072184534859 222.20721845348586)"><path d="M50.78 81.24 C50.78 81.24, 50.78 81.24, 50.78 81.24 M50.78 81.24 C50.78 81.24, 50.78 81.24, 50.78 81.24 M20.73 128 C47.67 99.47, 70.73 70.96, 94.87 42.72 M20.73 128 C44.98 98.86, 69.83 70.55, 94.87 42.72 M26.11 134 C51.35 104.72, 78.4 77.95, 114.68 32.12 M26.11 134 C47.52 108.26, 71.77 81.35, 114.68 32.12 M20.34 152.84 C48.98 121.12, 79.78 86.36, 133.84 22.27 M20.34 152.84 C64.28 101.76, 107.32 51.13, 133.84 22.27 M2.76 185.25 C54.83 124.46, 109.45 64.41, 148.41 17.71 M2.76 185.25 C56.24 126.69, 108.2 66.39, 148.41 17.71 M2.24 198.05 C57.43 136.86, 107.01 75.08, 162.32 13.9 M2.24 198.05 C65.9 127.08, 127.06 56.67, 162.32 13.9 M2.37 210.09 C48.56 155.14, 96.37 100.19, 175.57 10.85 M2.37 210.09 C64.01 140.54, 124.81 68.37, 175.57 10.85 M1.85 222.89 C42.06 177.65, 81.17 130.68, 188.83 7.79 M1.85 222.89 C45.89 172.49, 90.41 120.75, 188.83 7.79 M1.98 234.93 C53.2 173.28, 107.09 113.95, 203.39 3.23 M1.98 234.93 C76.46 148.79, 151.51 62.84, 203.39 3.23 M3.43 245.46 C77.05 166.53, 146.26 84.5, 213.37 3.95 M3.43 245.46 C61.57 177.13, 121.9 108.54, 213.37 3.95 M5.53 255.23 C78.88 171.01, 154.32 85.43, 224 3.92 M5.53 255.23 C84.77 165.98, 162.49 75.88, 224 3.92 M7.63 265.01 C73.05 189.07, 138.68 114, 233.97 4.64 M7.63 265.01 C70.82 193.33, 132.84 121.18, 233.97 4.64 M9.73 274.79 C76.45 198.27, 143.61 119.73, 243.95 5.36 M9.73 274.79 C73.76 199.85, 138.79 124.25, 243.95 5.36 M11.83 284.56 C70.36 218.1, 129.05 148.53, 253.92 6.08 M11.83 284.56 C60.6 228.29, 109.02 171.91, 253.92 6.08 M13.94 294.34 C80.28 218.84, 144.35 145.5, 263.24 7.55 M13.94 294.34 C98.32 197.76, 181.41 101.98, 263.24 7.55 M17.35 302.61 C105.3 200.54, 194.35 98.99, 271.9 9.78 M17.35 302.61 C85.52 222.4, 155.81 142.57, 271.9 9.78 M21.42 310.12 C123.89 190.13, 228.2 71.56, 280.56 12.01 M21.42 310.12 C110.81 205.58, 202.11 100.68, 280.56 12.01 M25.49 317.63 C111.17 221.22, 197.31 123.75, 288.57 15 M25.49 317.63 C111.15 220.96, 195.56 123.99, 288.57 15 M29.56 325.15 C83.27 261.97, 139.06 198.92, 297.23 17.23 M29.56 325.15 C130.24 210.74, 230.59 95.28, 297.23 17.23 M33.63 332.66 C106.84 249.26, 177.41 167.94, 305.89 19.45 M33.63 332.66 C91.47 268.79, 148.73 203.73, 305.89 19.45 M37.7 340.17 C140.22 222.3, 243.69 103.37, 315.87 20.17 M37.7 340.17 C112.85 252.35, 188.5 164.68, 315.87 20.17 M41.77 347.68 C107.64 269.51, 174.25 191.66, 322.56 24.67 M41.77 347.68 C102.26 278.49, 162.66 209.22, 322.56 24.67 M46.49 354.44 C146.07 238.88, 244.38 126.09, 329.25 29.16 M46.49 354.44 C142.51 242.88, 239.57 130.6, 329.25 29.16 M51.87 360.45 C136.03 260.9, 224.01 162.15, 335.95 33.66 M51.87 360.45 C124.42 276.29, 197.95 191.76, 335.95 33.66 M57.25 366.45 C165.78 242.44, 272.15 119.81, 342.64 38.15 M57.25 366.45 C146.63 264.63, 237.01 160.94, 342.64 38.15 M61.98 373.21 C137.99 283.63, 216.29 195.12, 349.33 42.64 M61.98 373.21 C139.4 284.44, 216.17 195.04, 349.33 42.64 M67.36 379.21 C141.51 293.24, 218.47 205.57, 356.68 46.38 M67.36 379.21 C160.71 268.71, 256.37 159.31, 356.68 46.38 M72.74 385.21 C173.18 270.92, 273.96 156.27, 363.38 50.88 M72.74 385.21 C133.83 316.02, 193.51 247.4, 363.38 50.88 M78.12 391.22 C191.07 261.18, 303.7 132.22, 369.41 56.12 M78.12 391.22 C185.08 270.39, 289.8 149.49, 369.41 56.12 M83.51 397.22 C167.47 300.16, 250.83 203.15, 374.8 62.13 M83.51 397.22 C159.31 310.66, 234.05 225.02, 374.8 62.13 M90.2 401.71 C179.59 297.77, 271.65 191.88, 380.18 68.13 M90.2 401.71 C148.54 334.87, 207.25 266.48, 380.18 68.13 M96.89 406.21 C171.91 322.22, 245.36 236.73, 386.22 73.38 M96.89 406.21 C160.54 332.12, 226.86 256.61, 386.22 73.38 M104.24 409.95 C211.74 287.86, 317.43 164.24, 391.6 79.38 M104.24 409.95 C185.73 315.04, 268.26 220.72, 391.6 79.38 M110.94 414.44 C214.18 296.74, 317.34 177.3, 396.98 85.39 M110.94 414.44 C212.08 297.98, 313.06 180.92, 396.98 85.39 M117.63 418.93 C196.44 328.53, 277.49 237.5, 402.36 91.39 M117.63 418.93 C187.63 335.98, 259.56 254.88, 402.36 91.39 M124.98 422.67 C212.31 321.66, 298.81 219.77, 407.74 97.39 M124.98 422.67 C207.38 325.72, 291.24 230.03, 407.74 97.39 M131.67 427.17 C219.33 327.4, 304.88 227.5, 411.81 104.91 M131.67 427.17 C236.22 307.43, 339.66 188.51, 411.81 104.91 M140.34 429.4 C241.04 313.01, 341.46 195.88, 415.88 112.42 M140.34 429.4 C234.68 321.62, 328.22 213.43, 415.88 112.42 M148.34 432.38 C236.75 330.25, 325.73 228.81, 419.29 120.69 M148.34 432.38 C241.84 327.35, 334.98 220.61, 419.29 120.69 M157 434.61 C255.94 319.35, 356.85 204.92, 423.36 128.2 M157 434.61 C261.13 313.74, 367.04 192.42, 423.36 128.2 M165.01 437.59 C261.65 327.08, 358.54 215.88, 427.43 135.71 M165.01 437.59 C241.21 349.12, 317.03 262.06, 427.43 135.71 M173.67 439.82 C266.74 331.76, 360.47 224.52, 430.19 144.73 M173.67 439.82 C276.31 321.28, 379.03 203.78, 430.19 144.73 M182.33 442.05 C240.72 374.08, 298.41 305.97, 432.29 154.51 M182.33 442.05 C273.6 339.23, 363.16 235.75, 432.29 154.51 M189.68 445.79 C271.48 353.49, 353 259.66, 434.39 164.29 M189.68 445.79 C265.32 360.57, 340 275.51, 434.39 164.29 M199.66 446.51 C274.4 362.47, 350.23 275.91, 436.5 174.06 M199.66 446.51 C276.48 359.22, 352.83 271.08, 436.5 174.06 M210.29 446.48 C266.4 382.11, 323.58 318.54, 439.25 183.08 M210.29 446.48 C281.08 367.7, 349.44 288.99, 439.25 183.08 M220.92 446.44 C302.81 353.76, 384.62 261.54, 441.35 192.86 M220.92 446.44 C305.06 351.27, 387.89 255.27, 441.35 192.86 M231.55 446.41 C281.53 388.18, 335.89 327.79, 444.11 201.88 M231.55 446.41 C315.77 349.75, 400.77 251.35, 444.11 201.88 M244.8 443.36 C307.6 368.89, 373.57 295.34, 442.93 215.43 M244.8 443.36 C315.93 363.51, 383.92 283.61, 442.93 215.43 M257.4 441.06 C309.07 386.84, 357.58 330.01, 442.41 228.23 M257.4 441.06 C300.12 392.86, 342.54 344.25, 442.41 228.23 M270.66 438 C321.54 380.65, 371.06 321.55, 441.89 241.02 M270.66 438 C319.29 383.7, 368.32 327.49, 441.89 241.02 M283.25 435.71 C343.8 365.17, 407.76 294.57, 441.36 253.82 M283.25 435.71 C323.72 387.82, 364.4 342.55, 441.36 253.82 M296.51 432.65 C351.36 368.48, 408.47 305.55, 444.12 262.84 M296.51 432.65 C333.96 390.75, 370.77 349.74, 444.12 262.84 M304.51 435.64 C344.24 389.06, 385.96 341.34, 439.66 280.17 M304.51 435.64 C352.51 379.32, 402.03 322.09, 439.66 280.17 M325.64 423.53 C348.7 396.67, 368.66 371.87, 434.55 298.24 M325.64 423.53 C364.81 379.82, 401.64 335.55, 434.55 298.24 M352.67 404.62 C369.55 384.66, 389.01 363.99, 428.12 317.83 M352.67 404.62 C372.21 383.49, 392.15 360.32, 428.12 317.83" stroke="#ffc9c9" stroke-width="1" fill="none"></path><path d="M145.23 14.54 C160.94 4.97, 181.97 2.64, 200.99 0.86 C220.01 -0.91, 240.43 0.77, 259.34 3.88 C278.25 7, 296.98 11.61, 314.44 19.54 C331.91 27.47, 349.26 39.12, 364.15 51.46 C379.03 63.81, 392.81 78.04, 403.73 93.6 C414.66 109.17, 423.08 126.83, 429.68 144.84 C436.27 162.85, 441.5 182.65, 443.29 201.68 C445.07 220.71, 443.46 240.15, 440.38 259.02 C437.29 277.88, 432.53 297.51, 424.79 314.88 C417.04 332.24, 406.36 348.58, 393.9 363.2 C381.44 377.81, 365.72 391.27, 350.05 402.57 C334.38 413.86, 317.61 424.32, 299.88 430.98 C282.14 437.63, 262.88 440.68, 243.65 442.5 C224.41 444.32, 203.49 444.77, 184.48 441.89 C165.48 439, 147.11 433.13, 129.64 425.17 C112.18 417.21, 94.34 406.54, 79.71 394.13 C65.08 381.73, 52.96 366.51, 41.87 350.73 C30.77 334.94, 19.83 317.29, 13.14 299.43 C6.46 281.57, 3.54 262.54, 1.75 243.55 C-0.03 224.57, -0.59 204.6, 2.45 185.51 C5.49 166.42, 11.96 146.38, 19.99 129.04 C28.01 111.7, 38.33 95.98, 50.6 81.45 C62.87 66.91, 76.27 53.73, 93.62 41.83 C110.97 29.93, 142.74 14.9, 154.71 10.05 C166.69 5.2, 164.38 9.1, 165.47 12.72" stroke="#e03131" stroke-width="2.5" fill="none" stroke-dasharray="8 10"></path></g><g transform="translate(20.038959149328093 10) rotate(0 220.46815490722656 12.08176266961965)"><text x="0" y="0" font-family="Virgil, Segoe UI Emoji" font-size="19.330820271391442px" fill="#e03131" text-anchor="start" style="white-space: pre;" direction="ltr" dominant-baseline="text-before-edge">The Scope of Real World Software Engineering</text></g><g stroke-linecap="round" transform="translate(183.3006160076452 318.69466908286927) rotate(0 75.56238912251752 75.56238912251752)"><path d="M48.57 5.87 C58.05 1.13, 71.34 0.38, 82.14 1.22 C92.94 2.06, 104.11 5.47, 113.36 10.91 C122.61 16.35, 131.43 24.76, 137.64 33.85 C143.85 42.94, 148.95 54.76, 150.62 65.43 C152.29 76.1, 150.97 87.62, 147.66 97.9 C144.34 108.18, 138.2 119.2, 130.75 127.1 C123.3 135, 113.39 141.18, 102.98 145.29 C92.57 149.41, 79.3 152.47, 68.31 151.78 C57.31 151.1, 46.25 146.96, 36.99 141.17 C27.74 135.37, 18.92 126.05, 12.78 117.01 C6.64 107.96, 1.64 97.56, 0.15 86.93 C-1.33 76.3, 0.39 63.86, 3.86 53.23 C7.33 42.6, 12.64 31.43, 20.95 23.15 C29.26 14.86, 47.71 6.68, 53.72 3.51 C59.73 0.35, 56.75 2.98, 57.03 4.15" stroke="none" stroke-width="0" fill="#b2f2bb"></path><path d="M62.06 1.33 C72.1 -1.45, 86.09 0.32, 96.56 3.41 C107.04 6.51, 116.86 12.73, 124.92 19.89 C132.98 27.06, 140.51 36.45, 144.91 46.38 C149.31 56.31, 151.78 68.47, 151.32 79.48 C150.86 90.48, 147.64 102.86, 142.16 112.41 C136.68 121.95, 127.26 130.44, 118.44 136.76 C109.63 143.08, 99.93 148.36, 89.27 150.32 C78.61 152.27, 65.21 151.64, 54.5 148.48 C43.78 145.31, 33.27 138.73, 24.99 131.32 C16.71 123.9, 9.05 114.11, 4.82 103.99 C0.59 93.87, -1.13 81.32, -0.39 70.6 C0.35 59.87, 3.99 49.2, 9.25 39.61 C14.52 30.03, 20.91 19.55, 31.2 13.1 C41.49 6.65, 62.7 2.78, 71.01 0.93 C79.31 -0.93, 80.99 0.94, 81.04 1.97" stroke="#2f9e44" stroke-width="2.5" fill="none" stroke-dasharray="8 10"></path></g><g stroke-linecap="round"><g transform="translate(257.3845169203132 473.3762996787145) rotate(0 0.37790788971960865 14.303482895716286)"><path d="M0.49 0.26 C0.68 5.04, 0.67 23.81, 0.65 28.52" stroke="#2f9e44" stroke-width="2.5" fill="none" stroke-dasharray="8 10"></path></g><g transform="translate(257.3845169203132 473.3762996787145) rotate(0 0.37790788971960865 14.303482895716286)"><path d="M-4.23 15.07 C-2.86 17.78, -2.27 20.29, 0.65 28.52" stroke="#2f9e44" stroke-width="2.5" fill="none"></path></g><g transform="translate(257.3845169203132 473.3762996787145) rotate(0 0.37790788971960865 14.303482895716286)"><path d="M5.56 15.08 C4.84 17.83, 3.33 20.34, 0.65 28.52" stroke="#2f9e44" stroke-width="2.5" fill="none"></path></g></g><mask></mask><g transform="translate(124.99696847737505 506.1110969341168) rotate(0 128.3199462890625 10)"><text x="0" y="0" font-family="Virgil, Segoe UI Emoji" font-size="16px" fill="#2f9e44" text-anchor="start" style="white-space: pre;" direction="ltr" dominant-baseline="text-before-edge">The scope we cover in education</text></g><g transform="translate(10 511.6662324324529) rotate(0 29.02048194922304 5.238358326573007)"><text x="0" y="0" font-family="Virgil, Segoe UI Emoji" font-size="8.381373322516819px" fill="#f08c00" text-anchor="start" style="white-space: pre;" direction="ltr" dominant-baseline="text-before-edge">lucasfaria.dev</text></g></svg>